<svg width="202" height="11" viewBox="0 0 202 11" fill="none" xmlns="http://www.w3.org/2000/svg">
<path d="M16.46 11H13L12.18 9.64H5.8L7.44 6.92H10.54L8.22 3.06L3.44 11H0L6.48 0.2H9.96L16.46 11ZM28.8955 4.64C29.9555 5.2 30.6955 6.32 30.6955 7.62C30.6955 9.48 29.1755 11 27.3155 11H16.8555V0.2H25.6755C27.5355 0.219999 29.0555 1.72 29.0555 3.6C29.0555 3.96 28.9955 4.3 28.8955 4.64ZM27.0955 8.26C27.4555 8.26 27.7555 7.98 27.7555 7.62C27.7555 7.26 27.4555 6.96 27.0955 6.96H19.5955V8.26H27.0955ZM19.5955 2.94V4.24H25.4555C25.8155 4.24 26.1155 3.94 26.1155 3.58C26.1155 3.22 25.8155 2.94 25.4555 2.94H19.5955ZM41.7891 0.2C44.1691 0.2 46.1091 2.14 46.1091 4.52L46.0891 6.7C46.0891 9.08 44.1691 11 41.7891 11H35.6091C33.2291 11 31.2891 9.08 31.2891 6.7L31.3091 4.5C31.3091 2.12 33.2291 0.2 35.6091 0.2H41.7891ZM43.1291 6.94V4.28C43.1291 3.54 42.5291 2.94 41.7891 2.94H35.6091C34.8691 2.94 34.2491 3.54 34.2491 4.28V6.94C34.2491 7.68 34.8691 8.28 35.6091 8.28H41.7891C42.5291 8.28 43.1291 7.68 43.1291 6.94ZM56.9694 11H51.4094C49.0294 11 47.1094 9.06 47.1094 6.7V0.2H50.0694V6.94C50.0694 7.68 50.6694 8.28 51.4094 8.28H56.9894C57.7294 8.28 58.3294 7.68 58.3294 6.94V0.2H61.2894V6.7C61.2894 9.08 59.3494 11 56.9694 11ZM76.5452 0.2V2.92H70.8852V11H67.9252V2.92H62.2852V0.2H76.5452ZM91.1391 0.2V11H88.1991V2.92H82.5391V0.2H91.1391ZM92.4591 0.2H96.7991V2.92H92.4591V0.2ZM110.353 2.92H100.753V4.24H107.673V6.96H100.753V8.28H110.353V11H97.793V0.2H110.353V2.92ZM114.308 3.82V7.38C114.308 7.88 114.708 8.28 115.208 8.28H124.288V11H114.788C112.888 11 111.348 9.46 111.348 7.56V3.64C111.348 1.74 112.888 0.2 114.788 0.2H124.288V2.94H115.208C114.708 2.94 114.308 3.34 114.308 3.82ZM138.853 0.2V11H135.893V7.08H128.253V11H125.293V0.2H128.253V4.34H135.893V0.2H138.853ZM154.864 11H150.684L146.704 7.02L142.804 11H139.844V0.2H142.804V6.76L149.264 0.2H153.384L148.764 4.9L154.864 11ZM169.353 11H165.353L161.333 6.98H158.233V11H155.273V0.2H165.433C167.313 0.2 168.833 1.72 168.833 3.58C168.833 5.46 167.313 6.98 165.433 6.98H165.333L169.353 11ZM158.233 2.92V4.24H165.213C165.573 4.24 165.873 3.94 165.873 3.58C165.873 3.22 165.573 2.92 165.213 2.92H158.233ZM169.746 11V0.2H172.706V11H169.746ZM189.885 0.2L183.065 7.02V11H179.925V7.02L173.105 0.2H177.285L181.505 4.4L185.705 0.2H189.885ZM198.508 11L197.688 9.64H189.768L188.948 11H185.488L191.988 0.2H195.448L201.948 11H198.508ZM191.408 6.92H196.048L193.728 3.06L191.408 6.92Z" fill="white"/>
</svg>
