<svg width="321" height="11" viewBox="0 0 321 11" fill="none" xmlns="http://www.w3.org/2000/svg">
<path d="M16.46 11H13L12.18 9.64H5.8L7.44 6.92H10.54L8.22 3.06L3.44 11H0L6.48 0.2H9.96L16.46 11ZM28.8955 4.64C29.9555 5.2 30.6955 6.32 30.6955 7.62C30.6955 9.48 29.1755 11 27.3155 11H16.8555V0.2H25.6755C27.5355 0.219999 29.0555 1.72 29.0555 3.6C29.0555 3.96 28.9955 4.3 28.8955 4.64ZM27.0955 8.26C27.4555 8.26 27.7555 7.98 27.7555 7.62C27.7555 7.26 27.4555 6.96 27.0955 6.96H19.5955V8.26H27.0955ZM19.5955 2.94V4.24H25.4555C25.8155 4.24 26.1155 3.94 26.1155 3.58C26.1155 3.22 25.8155 2.94 25.4555 2.94H19.5955ZM41.7891 0.2C44.1691 0.2 46.1091 2.14 46.1091 4.52L46.0891 6.7C46.0891 9.08 44.1691 11 41.7891 11H35.6091C33.2291 11 31.2891 9.08 31.2891 6.7L31.3091 4.5C31.3091 2.12 33.2291 0.2 35.6091 0.2H41.7891ZM43.1291 6.94V4.28C43.1291 3.54 42.5291 2.94 41.7891 2.94H35.6091C34.8691 2.94 34.2491 3.54 34.2491 4.28V6.94C34.2491 7.68 34.8691 8.28 35.6091 8.28H41.7891C42.5291 8.28 43.1291 7.68 43.1291 6.94ZM56.9694 11H51.4094C49.0294 11 47.1094 9.06 47.1094 6.7V0.2H50.0694V6.94C50.0694 7.68 50.6694 8.28 51.4094 8.28H56.9894C57.7294 8.28 58.3294 7.68 58.3294 6.94V0.2H61.2894V6.7C61.2894 9.08 59.3494 11 56.9694 11ZM76.5452 0.2V2.92H70.8852V11H67.9252V2.92H62.2852V0.2H76.5452ZM96.0791 9.1L93.1191 6.04V0.2H96.0791V9.1ZM85.4991 0.2L96.0591 11H91.9791L85.4991 4.4V11H82.5391V0.2H85.4991ZM97.0703 11V0.2H100.03V11H97.0703ZM115.295 0.2V2.92H109.635V11H106.675V2.92H101.035V0.2H115.295ZM137.749 11H134.289L133.469 9.64H127.089L128.729 6.92H131.829L129.509 3.06L124.729 11H121.289L127.769 0.2H131.249L137.749 11ZM148.745 0.2H151.705V11H147.585L141.105 4.4V11H138.145V0.2H141.105L148.745 7.96V0.2ZM163.095 0.2C164.995 0.2 166.535 1.74 166.535 3.64V7.56C166.535 9.46 164.995 11 163.095 11H152.695V0.2H163.095ZM163.575 7.38V3.82C163.575 3.34 163.175 2.94 162.675 2.94H155.655V8.28H162.675C163.175 8.28 163.575 7.88 163.575 7.38ZM181.099 0.2V11H178.139V7.08H170.499V11H167.539V0.2H170.499V4.34H178.139V0.2H181.099ZM196.17 11H192.17L188.15 6.98H185.05V11H182.09V0.2H192.25C194.13 0.2 195.65 1.72 195.65 3.58C195.65 5.46 194.13 6.98 192.25 6.98H192.15L196.17 11ZM185.05 2.92V4.24H192.03C192.39 4.24 192.69 3.94 192.69 3.58C192.69 3.22 192.39 2.92 192.03 2.92H185.05ZM209.387 11L208.567 9.64H200.647L199.827 11H196.367L202.867 0.2H206.327L212.827 11H209.387ZM202.287 6.92H206.927L204.607 3.06L202.287 6.92ZM228.383 0.2C230.263 0.2 231.783 1.72 231.783 3.58C231.783 5.46 230.263 6.98 228.383 6.98H221.183V11H218.223V4.24H228.163C228.523 4.24 228.823 3.94 228.823 3.58C228.823 3.22 228.523 2.92 228.163 2.92H218.223V0.2H228.383ZM246.658 11H242.658L238.638 6.98H235.538V11H232.578V0.2H242.738C244.618 0.2 246.138 1.72 246.138 3.58C246.138 5.46 244.618 6.98 242.738 6.98H242.638L246.658 11ZM235.538 2.92V4.24H242.518C242.878 4.24 243.178 3.94 243.178 3.58C243.178 3.22 242.878 2.92 242.518 2.92H235.538ZM259.875 11L259.055 9.64H251.135L250.315 11H246.855L253.355 0.2H256.815L263.315 11H259.875ZM252.775 6.92H257.415L255.095 3.06L252.775 6.92ZM274.111 0.2C276.011 0.2 277.551 1.74 277.551 3.64V7.56C277.551 9.46 276.011 11 274.111 11H263.711V0.2H274.111ZM274.591 7.38V3.82C274.591 3.34 274.191 2.94 273.691 2.94H266.671V8.28H273.691C274.191 8.28 274.591 7.88 274.591 7.38ZM291.115 2.92H281.515V4.24H288.435V6.96H281.515V8.28H291.115V11H278.555V0.2H291.115V2.92ZM295.689 2.94C295.329 2.94 295.029 3.24 295.029 3.6C295.029 3.96 295.329 4.24 295.689 4.24H302.509C304.369 4.24 305.869 5.76 305.869 7.62C305.869 9.48 304.369 11 302.509 11H293.029V8.26H302.289C302.649 8.26 302.949 7.98 302.949 7.62C302.949 7.26 302.649 6.96 302.289 6.96H295.469C293.609 6.96 292.109 5.46 292.109 3.58C292.109 1.72 293.609 0.2 295.469 0.2H305.009V2.94H295.689ZM320.22 0.2V11H317.26V7.08H309.62V11H306.66V0.2H309.62V4.34H317.26V0.2H320.22Z" fill="white"/>
</svg>
