<svg width="320" height="382" viewBox="0 0 320 382" fill="none" xmlns="http://www.w3.org/2000/svg">
<mask id="path-1-inside-1_5734_5092" fill="white">
<path fill-rule="evenodd" clip-rule="evenodd" d="M0 38.2933V372C0 377.523 4.47715 382 10 382H103V343.433C103 337.91 107.477 333.433 113 333.433H320V10C320 4.47715 315.523 0 310 0H163V28.2933C163 33.8161 158.523 38.2933 153 38.2933H0Z"/>
</mask>
<path fill-rule="evenodd" clip-rule="evenodd" d="M0 38.2933V372C0 377.523 4.47715 382 10 382H103V343.433C103 337.91 107.477 333.433 113 333.433H320V10C320 4.47715 315.523 0 310 0H163V28.2933C163 33.8161 158.523 38.2933 153 38.2933H0Z" fill="#131313"/>
<path d="M0 38.2933V36.2933H-2V38.2933H0ZM103 382V384H105V382H103ZM320 333.433V335.433H322V333.433H320ZM163 0V-2H161V0H163ZM-2 38.2933V372H2V38.2933H-2ZM-2 372C-2 378.627 3.37258 384 10 384V380C5.58172 380 2 376.418 2 372H-2ZM10 384H103V380H10V384ZM105 382V343.433H101V382H105ZM105 343.433C105 339.015 108.582 335.433 113 335.433V331.433C106.373 331.433 101 336.806 101 343.433H105ZM113 335.433H320V331.433H113V335.433ZM322 333.433V10H318V333.433H322ZM322 10C322 3.37258 316.627 -2 310 -2V2C314.418 2 318 5.58172 318 10H322ZM310 -2H163V2H310V-2ZM165 28.2933V0H161V28.2933H165ZM153 40.2933C159.627 40.2933 165 34.9207 165 28.2933H161C161 32.7116 157.418 36.2933 153 36.2933V40.2933ZM0 40.2933H153V36.2933H0V40.2933Z" fill="#F0F3FD" mask="url(#path-1-inside-1_5734_5092)"/>
</svg>
