<svg width="209" height="50" viewBox="0 0 209 50" fill="none" xmlns="http://www.w3.org/2000/svg">
<rect width="209" height="50" rx="8" fill="#F7F9FC"/>
<path d="M78.88 19.2C80.78 19.2 82.32 20.74 82.32 22.64V26.56C82.32 28.46 80.78 30 78.88 30H68.5V23.24H71.46V27.28H78.48C78.96 27.28 79.36 26.88 79.36 26.38V22.82C79.36 22.34 78.96 21.94 78.48 21.94L68.5 21.92V19.2H78.88ZM83.3242 30V19.2H86.2842V30H83.3242ZM98.9836 19.2H102.424L95.9436 30H93.1436L86.6836 19.2H90.1236L94.5636 26.58L98.9836 19.2ZM115.376 21.92H105.776V23.24H112.696V25.96H105.776V27.28H115.376V30H102.816V19.2H115.376V21.92ZM121.371 30V19.2H124.331V30H121.371ZM135.936 19.2H138.896V30H134.776L128.296 23.4V30H125.336V19.2H128.296L135.936 26.96V19.2Z" fill="#1E1E1E"/>
</svg>
