<svg width="235" height="50" viewBox="0 0 235 50" fill="none" xmlns="http://www.w3.org/2000/svg">
<rect width="235" height="50" rx="8" fill="#F7F9FC"/>
<path d="M58.58 30H46V23.24H55.9V25.96H48.96V27.28H58.58V30ZM46 21.92V19.2H58.58V21.92H46ZM69.9542 19.2C71.8542 19.2 73.3942 20.74 73.3942 22.64V26.56C73.3942 28.46 71.8542 30 69.9542 30H59.5742V23.24H62.5342V27.28H69.5542C70.0342 27.28 70.4342 26.88 70.4342 26.38V22.82C70.4342 22.34 70.0342 21.94 69.5542 21.94L59.5742 21.92V19.2H69.9542ZM74.3984 30V19.2H77.3584V30H74.3984ZM86.9633 19.2V30H84.0233V21.92H78.3633V19.2H86.9633ZM88.2833 19.2H92.6233V21.92H88.2833V19.2ZM98.6172 19.2H108.777C110.637 19.2 112.157 20.72 112.157 22.58C112.157 24.46 110.637 25.98 108.777 25.98H101.577V30H98.6172V19.2ZM108.537 23.24C108.917 23.24 109.197 22.94 109.197 22.58C109.197 22.22 108.917 21.92 108.537 21.92H101.577V23.24H108.537ZM127.033 30H123.033L119.013 25.98H115.913V30H112.953V19.2H123.113C124.993 19.2 126.513 20.72 126.513 22.58C126.513 24.46 124.993 25.98 123.113 25.98H123.013L127.033 30ZM115.913 21.92V23.24H122.893C123.253 23.24 123.553 22.94 123.553 22.58C123.553 22.22 123.253 21.92 122.893 21.92H115.913ZM137.926 19.2C140.306 19.2 142.246 21.14 142.246 23.52L142.226 25.7C142.226 28.08 140.306 30 137.926 30H131.746C129.366 30 127.426 28.08 127.426 25.7L127.446 23.5C127.446 21.12 129.366 19.2 131.746 19.2H137.926ZM139.266 25.94V23.28C139.266 22.54 138.666 21.94 137.926 21.94H131.746C131.006 21.94 130.386 22.54 130.386 23.28V25.94C130.386 26.68 131.006 27.28 131.746 27.28H137.926C138.666 27.28 139.266 26.68 139.266 25.94ZM155.806 21.92H146.206V23.24H153.126V25.96H146.206V30H143.246V19.2H155.806V21.92ZM156.801 30V19.2H159.761V30H156.801ZM163.726 27.28H173.786V30H160.766V19.2H163.726V27.28ZM187.349 21.92H177.749V23.24H184.669V25.96H177.749V27.28H187.349V30H174.789V19.2H187.349V21.92Z" fill="#1E1E1E"/>
</svg>
