<svg width="116" height="11" viewBox="0 0 116 11" fill="none" xmlns="http://www.w3.org/2000/svg">
<path d="M3.62 2.94C3.38 2.94 3.17333 3.02667 3 3.2C2.82667 3.37333 2.74 3.58 2.74 3.82V7.38C2.74 7.63333 2.82667 7.84667 3 8.02C3.17333 8.19333 3.38 8.28 3.62 8.28H10.62V7.08H7.42V4.34H13.58V11H3.58C3.08667 11 2.62 10.9067 2.18 10.72C1.75333 10.5333 1.37333 10.28 1.04 9.96C0.72 9.62667 0.466667 9.24667 0.28 8.82C0.0933333 8.38 0 7.91333 0 7.42V3.78C0 3.28667 0.0933333 2.82667 0.28 2.4C0.466667 1.96 0.72 1.58 1.04 1.26C1.37333 0.926666 1.75333 0.666666 2.18 0.48C2.62 0.293333 3.08667 0.2 3.58 0.2H13.58V2.94H3.62ZM20.1303 2.92V4.24H27.0503V6.96H20.1303V8.28H29.7303V11H17.1703V0.2H29.7303V2.92H20.1303ZM43.905 6.04V0.2H46.865V9.1L43.905 6.04ZM46.845 11H42.765L36.285 4.4V11H33.325V0.2H36.285L46.845 11ZM53.4162 2.92V4.24H60.3362V6.96H53.4162V8.28H63.0162V11H50.4562V0.2H63.0162V2.92H53.4162ZM80.6909 11H76.6909L72.6509 6.98H69.5709V11H66.6109V4.24H76.5309C76.7176 4.24 76.8709 4.18 76.9909 4.06C77.1243 3.92667 77.1909 3.76667 77.1909 3.58C77.1909 3.39333 77.1243 3.24 76.9909 3.12C76.8709 2.98667 76.7176 2.92 76.5309 2.92H66.6109V0.2H76.7709C77.2376 0.2 77.6709 0.293333 78.0709 0.48C78.4843 0.653333 78.8443 0.893333 79.1509 1.2C79.4576 1.50667 79.6976 1.86667 79.8709 2.28C80.0576 2.68 80.1509 3.11333 80.1509 3.58C80.1509 4.04667 80.0576 4.48667 79.8709 4.9C79.6976 5.31333 79.4576 5.67333 79.1509 5.98C78.8443 6.28667 78.4843 6.53333 78.0709 6.72C77.6709 6.89333 77.2376 6.98 76.7709 6.98H76.6509L80.6909 11ZM96.4883 11L95.6683 9.64H89.2883L90.9283 6.92H94.0283L91.7083 3.06L86.9283 11H83.4883L89.9683 0.2H93.4483L99.9483 11H96.4883ZM115.964 8.28V11H102.944V0.2H105.904V8.28H115.964Z" fill="white"/>
</svg>
