<svg width="209" height="50" viewBox="0 0 209 50" fill="none" xmlns="http://www.w3.org/2000/svg">
<rect width="209" height="50" rx="8" fill="#F7F9FC"/>
<path d="M34.12 21.94C33.64 21.94 33.24 22.34 33.24 22.82V26.38C33.24 26.88 33.64 27.28 34.12 27.28H41.12V26.08H37.92V23.34H44.08V30H34.08C32.1 30 30.5 28.4 30.5 26.42V22.78C30.5 20.8 32.1 19.2 34.08 19.2H44.08V21.94H34.12ZM57.6303 21.92H48.0303V23.24H54.9503V25.96H48.0303V27.28H57.6303V30H45.0703V19.2H57.6303V21.92ZM72.885 19.2V21.92H67.225V30H64.265V21.92H58.625V19.2H72.885ZM91.7389 19.2V21.94H78.8789C79.1789 20.38 80.5589 19.2 82.1989 19.2H91.7389ZM89.2189 23.24C91.0989 23.24 92.5989 24.76 92.5989 26.62C92.5989 28.48 91.0989 30 89.2189 30H79.7589V27.26H89.0189C89.3789 27.26 89.6589 26.98 89.6589 26.62C89.6589 26.26 89.3789 25.96 89.0189 25.96H82.1989C80.5589 25.96 79.1989 24.8 78.8989 23.24H89.2189ZM107.045 19.2V21.92H101.385V30H98.4252V21.92H92.7852V19.2H107.045ZM116.86 30L116.04 28.64H108.12L107.3 30H103.84L110.34 19.2H113.8L120.3 30H116.86ZM109.76 25.92H114.4L112.08 22.06L109.76 25.92ZM134.775 30H130.775L126.755 25.98H123.655V30H120.695V19.2H130.855C132.735 19.2 134.255 20.72 134.255 22.58C134.255 24.46 132.735 25.98 130.855 25.98H130.755L134.775 30ZM123.655 21.92V23.24H130.635C130.995 23.24 131.295 22.94 131.295 22.58C131.295 22.22 130.995 21.92 130.635 21.92H123.655ZM149.037 19.2V21.92H143.377V30H140.417V21.92H134.777V19.2H149.037ZM162.591 21.92H152.991V23.24H159.911V25.96H152.991V27.28H162.591V30H150.031V19.2H162.591V21.92ZM173.986 19.2C175.886 19.2 177.426 20.74 177.426 22.64V26.56C177.426 28.46 175.886 30 173.986 30H163.586V19.2H173.986ZM174.466 26.38V22.82C174.466 22.34 174.066 21.94 173.566 21.94H166.546V27.28H173.566C174.066 27.28 174.466 26.88 174.466 26.38Z" fill="#1E1E1E"/>
</svg>
