<svg width="252" height="10" viewBox="0 0 252 10" fill="none" xmlns="http://www.w3.org/2000/svg">
<path d="M2.664 4.006H12.186V10H9.522V6.472H2.664V10H0V0.28H2.664V4.006ZM12.186 2.836H9.522V0.28H12.186V2.836ZM22.5281 0.28C24.6701 0.28 26.4161 2.026 26.4161 4.168L26.3981 6.13C26.3981 8.272 24.6701 10 22.5281 10H16.9661C14.8241 10 13.0781 8.272 13.0781 6.13L13.0961 4.15C13.0961 2.008 14.8241 0.28 16.9661 0.28H22.5281ZM23.7341 6.346V3.952C23.7341 3.286 23.1941 2.746 22.5281 2.746H16.9661C16.3001 2.746 15.7421 3.286 15.7421 3.952V6.346C15.7421 7.012 16.3001 7.552 16.9661 7.552H22.5281C23.1941 7.552 23.7341 7.012 23.7341 6.346ZM30.5384 2.746C30.2144 2.746 29.9444 3.016 29.9444 3.34C29.9444 3.664 30.2144 3.916 30.5384 3.916H36.6764C38.3504 3.916 39.7004 5.284 39.7004 6.958C39.7004 8.632 38.3504 10 36.6764 10H28.1444V7.534H36.4784C36.8024 7.534 37.0724 7.282 37.0724 6.958C37.0724 6.634 36.8024 6.364 36.4784 6.364H30.3404C28.6664 6.364 27.3164 5.014 27.3164 3.322C27.3164 1.648 28.6664 0.28 30.3404 0.28H38.9264V2.746H30.5384ZM52.7012 0.28V2.728H47.6072V10H44.9432V2.728H39.8672V0.28H52.7012ZM64.8997 2.728H56.2597V3.916H62.4877V6.364H56.2597V7.552H64.8997V10H53.5957V0.28H64.8997V2.728ZM68.4589 7.552H77.5129V10H65.7949V0.28H68.4589V7.552ZM97.73 10H94.616L93.878 8.776H88.136L89.612 6.328H92.402L90.314 2.854L86.012 10H82.916L88.748 0.28H91.88L97.73 10ZM100.398 3.538V6.742C100.398 7.192 100.758 7.552 101.208 7.552H109.38V10H100.83C99.1204 10 97.7344 8.614 97.7344 6.904V3.376C97.7344 1.666 99.1204 0.28 100.83 0.28H109.38V2.746H101.208C100.758 2.746 100.398 3.106 100.398 3.538ZM112.949 3.538V6.742C112.949 7.192 113.309 7.552 113.759 7.552H121.931V10H113.381C111.671 10 110.285 8.614 110.285 6.904V3.376C110.285 1.666 111.671 0.28 113.381 0.28H121.931V2.746H113.759C113.309 2.746 112.949 3.106 112.949 3.538ZM132.286 0.28C134.428 0.28 136.174 2.026 136.174 4.168L136.156 6.13C136.156 8.272 134.428 10 132.286 10H126.724C124.582 10 122.836 8.272 122.836 6.13L122.854 4.15C122.854 2.008 124.582 0.28 126.724 0.28H132.286ZM133.492 6.346V3.952C133.492 3.286 132.952 2.746 132.286 2.746H126.724C126.058 2.746 125.5 3.286 125.5 3.952V6.346C125.5 7.012 126.058 7.552 126.724 7.552H132.286C132.952 7.552 133.492 7.012 133.492 6.346ZM149.404 0.28H152.014V10H149.368V4.744L146.074 10H143.032L139.738 4.744V10H137.074V0.28H139.684L144.544 7.606L149.404 0.28ZM165.242 0.28H167.852V10H165.206V4.744L161.912 10H158.87L155.576 4.744V10H152.912V0.28H155.522L160.382 7.606L165.242 0.28ZM178.2 0.28C180.342 0.28 182.088 2.026 182.088 4.168L182.07 6.13C182.07 8.272 180.342 10 178.2 10H172.638C170.496 10 168.75 8.272 168.75 6.13L168.768 4.15C168.768 2.008 170.496 0.28 172.638 0.28H178.2ZM179.406 6.346V3.952C179.406 3.286 178.866 2.746 178.2 2.746H172.638C171.972 2.746 171.414 3.286 171.414 3.952V6.346C171.414 7.012 171.972 7.552 172.638 7.552H178.2C178.866 7.552 179.406 7.012 179.406 6.346ZM192.348 0.28C194.058 0.28 195.444 1.666 195.444 3.376V6.904C195.444 8.614 194.058 10 192.348 10H182.988V0.28H192.348ZM192.78 6.742V3.538C192.78 3.106 192.42 2.746 191.97 2.746H185.652V7.552H191.97C192.42 7.552 192.78 7.192 192.78 6.742ZM207.169 10L206.431 8.776H199.303L198.565 10H195.451L201.301 0.28H204.415L210.265 10H207.169ZM200.779 6.328H204.955L202.867 2.854L200.779 6.328ZM220.221 0.28V2.728H215.127V10H212.463V2.728H207.387V0.28H220.221ZM221.115 10V0.28H223.779V10H221.115ZM234.134 0.28C236.276 0.28 238.022 2.026 238.022 4.168L238.004 6.13C238.004 8.272 236.276 10 234.134 10H228.572C226.43 10 224.684 8.272 224.684 6.13L224.702 4.15C224.702 2.008 226.43 0.28 228.572 0.28H234.134ZM235.34 6.346V3.952C235.34 3.286 234.8 2.746 234.134 2.746H228.572C227.906 2.746 227.348 3.286 227.348 3.952V6.346C227.348 7.012 227.906 7.552 228.572 7.552H234.134C234.8 7.552 235.34 7.012 235.34 6.346ZM248.462 0.28H251.126V10H247.418L241.586 4.06V10H238.922V0.28H241.586L248.462 7.264V0.28Z" fill="white"/>
</svg>
