<svg width="110" height="18" viewBox="0 0 110 18" fill="none" xmlns="http://www.w3.org/2000/svg">
<path d="M2.58 2.1H3.78V12.68H15.08V13.9H2.58V2.1ZM1.48 15.02H16.18V11.56H4.9V0.979999H1.48V15.02ZM0.98 0.48H5.4L7.34 2.54V11.06H16.68L18.62 13.12V17.46H3.04L0.98 15.52V0.48ZM30.5525 12.68C31.3258 12.68 32.0458 12.6 32.7125 12.44C33.3925 12.2667 33.9792 12 34.4725 11.64C34.9792 11.2667 35.3725 10.7867 35.6525 10.2C35.9325 9.6 36.0725 8.86667 36.0725 8C36.0725 7.14667 35.9258 6.42 35.6325 5.82C35.3525 5.22 34.9658 4.74 34.4725 4.38C33.9792 4.00667 33.3925 3.74 32.7125 3.58C32.0458 3.40667 31.3258 3.32 30.5525 3.32H28.3525C27.5658 3.32 26.8325 3.40667 26.1525 3.58C25.4858 3.74 24.9058 4.00667 24.4125 4.38C23.9192 4.74 23.5258 5.22 23.2325 5.82C22.9525 6.42 22.8125 7.14667 22.8125 8C22.8125 8.86667 22.9525 9.6 23.2325 10.2C23.5258 10.7867 23.9192 11.2667 24.4125 11.64C24.9058 12.0133 25.4858 12.28 26.1525 12.44C26.8325 12.6 27.5658 12.68 28.3525 12.68H30.5525ZM28.3525 11.56C27.7525 11.56 27.1858 11.5 26.6525 11.38C26.1192 11.26 25.6525 11.0667 25.2525 10.8C24.8525 10.52 24.5325 10.1533 24.2925 9.7C24.0525 9.24667 23.9325 8.68 23.9325 8C23.9325 7.33333 24.0525 6.77333 24.2925 6.32C24.5325 5.86667 24.8525 5.5 25.2525 5.22C25.6658 4.94 26.1392 4.74 26.6725 4.62C27.2058 4.5 27.7658 4.44 28.3525 4.44H30.5525C31.1392 4.44 31.6992 4.5 32.2325 4.62C32.7658 4.74 33.2325 4.94 33.6325 5.22C34.0325 5.5 34.3525 5.86667 34.5925 6.32C34.8325 6.77333 34.9525 7.33333 34.9525 8C34.9525 8.66667 34.8325 9.22667 34.5925 9.68C34.3658 10.1333 34.0525 10.5 33.6525 10.78C33.2525 11.06 32.7858 11.26 32.2525 11.38C31.7192 11.5 31.1525 11.56 30.5525 11.56H28.3525ZM21.5525 8C21.5525 6.92 21.7192 6.00667 22.0525 5.26C22.3992 4.51333 22.8725 3.90667 23.4725 3.44C24.0858 2.96 24.8058 2.62 25.6325 2.42C26.4725 2.20667 27.3792 2.1 28.3525 2.1H30.5525C31.5258 2.1 32.4258 2.20667 33.2525 2.42C34.0792 2.63333 34.7925 2.97333 35.3925 3.44C36.0058 3.90667 36.4792 4.51333 36.8125 5.26C37.1592 6.00667 37.3325 6.92 37.3325 8C37.3325 9.08 37.1592 9.99333 36.8125 10.74C36.4792 11.4867 36.0058 12.0933 35.3925 12.56C34.7925 13.0267 34.0792 13.3667 33.2525 13.58C32.4258 13.7933 31.5258 13.9 30.5525 13.9H28.3525C27.3792 13.9 26.4725 13.8 25.6325 13.6C24.8058 13.3867 24.0858 13.0467 23.4725 12.58C22.8725 12.1 22.3992 11.4867 22.0525 10.74C21.7192 9.99333 21.5525 9.08 21.5525 8ZM20.4325 8C20.4325 9.26667 20.6258 10.3467 21.0125 11.24C21.4125 12.12 21.9592 12.84 22.6525 13.4C23.3592 13.96 24.1925 14.3733 25.1525 14.64C26.1258 14.8933 27.1925 15.02 28.3525 15.02H30.5525C31.7125 15.02 32.7725 14.8933 33.7325 14.64C34.6925 14.3733 35.5192 13.96 36.2125 13.4C36.9192 12.84 37.4658 12.12 37.8525 11.24C38.2392 10.3467 38.4325 9.26667 38.4325 8C38.4325 6.73333 38.2392 5.66 37.8525 4.78C37.4658 3.88667 36.9192 3.16 36.2125 2.6C35.5192 2.04 34.6925 1.63333 33.7325 1.38C32.7725 1.11333 31.7125 0.979999 30.5525 0.979999H28.3525C27.1925 0.979999 26.1258 1.11333 25.1525 1.38C24.1925 1.63333 23.3592 2.04 22.6525 2.6C21.9592 3.16 21.4125 3.88667 21.0125 4.78C20.6258 5.66 20.4325 6.73333 20.4325 8ZM19.9325 8C19.9325 6.64 20.1392 5.48667 20.5525 4.54C20.9658 3.58 21.5458 2.8 22.2925 2.2C23.0392 1.6 23.9258 1.16667 24.9525 0.899999C25.9925 0.62 27.1258 0.48 28.3525 0.48H30.5525C31.3258 0.48 32.0525 0.526666 32.7325 0.619999C33.4258 0.699999 34.1058 0.879999 34.7725 1.16C35.4392 1.42667 36.0992 1.81333 36.7525 2.32C37.4192 2.81333 38.1058 3.48 38.8125 4.32C39.4125 4.92 39.9058 5.71333 40.2925 6.7C40.6792 7.68667 40.8725 8.78667 40.8725 10C40.8725 11.3467 40.6658 12.4933 40.2525 13.44C39.8525 14.3867 39.2792 15.1533 38.5325 15.74C37.7992 16.34 36.9192 16.7733 35.8925 17.04C34.8792 17.32 33.7658 17.46 32.5525 17.46H30.3525C28.9925 17.46 27.7258 17.3067 26.5525 17C25.3792 16.6933 24.4125 16.1667 23.6525 15.42C22.8925 14.7533 22.2725 14.1267 21.7925 13.54C21.3125 12.94 20.9325 12.3467 20.6525 11.76C20.3858 11.1733 20.1992 10.5733 20.0925 9.96C19.9858 9.34667 19.9325 8.69333 19.9325 8ZM30.5525 11.06C31.0725 11.06 31.5658 11.0133 32.0325 10.92C32.5125 10.8133 32.9325 10.64 33.2925 10.4C33.6525 10.16 33.9325 9.84667 34.1325 9.46C34.3458 9.06 34.4525 8.57333 34.4525 8C34.4525 7.68 34.4125 7.38667 34.3325 7.12C33.7858 6.96 33.1925 6.88 32.5525 6.88H30.3525C29.8192 6.88 29.3125 6.93333 28.8325 7.04C28.3525 7.14667 27.9258 7.32 27.5525 7.56C27.1925 7.8 26.9058 8.12 26.6925 8.52C26.4792 8.92 26.3725 9.41333 26.3725 10C26.3725 10.32 26.3992 10.5867 26.4525 10.8C26.7325 10.8933 27.0325 10.96 27.3525 11C27.6725 11.04 28.0058 11.06 28.3525 11.06H30.5525ZM57.8358 4.52C57.2358 4.06667 56.5624 3.75333 55.8158 3.58C55.0824 3.40667 54.3424 3.32 53.5958 3.32H51.4158C50.6424 3.32 49.9158 3.40667 49.2358 3.58C48.5691 3.74 47.9891 4.00667 47.4958 4.38C47.0024 4.74 46.6091 5.22 46.3158 5.82C46.0358 6.42 45.8958 7.14667 45.8958 8C45.8958 8.86667 46.0358 9.6 46.3158 10.2C46.5958 10.7867 46.9824 11.2667 47.4758 11.64C47.9824 12 48.5691 12.2667 49.2358 12.44C49.9024 12.6 50.6291 12.68 51.4158 12.68H53.5958C54.2891 12.68 54.9491 12.6067 55.5758 12.46C56.2158 12.3 56.7891 12.06 57.2958 11.74C57.8024 11.4067 58.2358 10.9867 58.5958 10.48C58.9558 9.96 59.2158 9.33333 59.3758 8.6H53.8558V7.4H60.7758V8C60.7758 9.10667 60.5824 10.04 60.1958 10.8C59.8091 11.5467 59.2891 12.1533 58.6358 12.62C57.9824 13.0733 57.2224 13.4 56.3558 13.6C55.4891 13.8 54.5691 13.9 53.5958 13.9H51.4158C50.4424 13.9 49.5424 13.7933 48.7158 13.58C47.8891 13.3667 47.1691 13.0267 46.5558 12.56C45.9558 12.0933 45.4824 11.4867 45.1358 10.74C44.7891 9.99333 44.6158 9.08 44.6158 8C44.6158 6.92 44.7891 6.00667 45.1358 5.26C45.4824 4.51333 45.9558 3.90667 46.5558 3.44C47.1691 2.97333 47.8891 2.63333 48.7158 2.42C49.5424 2.20667 50.4424 2.1 51.4158 2.1H53.5958C54.0891 2.1 54.5824 2.12 55.0758 2.16C55.5691 2.18667 56.0491 2.25333 56.5158 2.36C56.9824 2.46667 57.4358 2.62 57.8758 2.82C58.3291 3.00667 58.7491 3.26667 59.1358 3.6L57.8358 4.52ZM60.8358 3.88C60.3691 3.26667 59.8624 2.77333 59.3158 2.4C58.7691 2.02667 58.1891 1.73333 57.5758 1.52C56.9758 1.30667 56.3424 1.16667 55.6758 1.1C55.0091 1.02 54.3158 0.979999 53.5958 0.979999H51.4158C50.2558 0.979999 49.1958 1.11333 48.2358 1.38C47.2758 1.63333 46.4424 2.04 45.7358 2.6C45.0424 3.16 44.5024 3.88667 44.1158 4.78C43.7291 5.66 43.5358 6.73333 43.5358 8C43.5358 9.26667 43.7291 10.3467 44.1158 11.24C44.5024 12.12 45.0424 12.84 45.7358 13.4C46.4424 13.96 47.2758 14.3733 48.2358 14.64C49.1958 14.8933 50.2558 15.02 51.4158 15.02H53.5958C54.7424 15.02 55.8158 14.9 56.8158 14.66C57.8291 14.4067 58.7091 14.0067 59.4558 13.46C60.2024 12.9 60.7891 12.1733 61.2158 11.28C61.6558 10.3867 61.8758 9.29333 61.8758 8V6.3H52.7358V9.7H57.9358C57.7224 10.06 57.4491 10.36 57.1158 10.6C56.7824 10.84 56.4158 11.0333 56.0158 11.18C55.6291 11.3133 55.2224 11.4133 54.7958 11.48C54.3824 11.5333 53.9824 11.56 53.5958 11.56H51.4158C50.8158 11.56 50.2491 11.5 49.7158 11.38C49.1824 11.26 48.7158 11.0667 48.3158 10.8C47.9158 10.52 47.5958 10.1533 47.3558 9.7C47.1158 9.24667 46.9958 8.68 46.9958 8C46.9958 7.33333 47.1158 6.77333 47.3558 6.32C47.5958 5.86667 47.9158 5.5 48.3158 5.22C48.7291 4.94 49.2024 4.74 49.7358 4.62C50.2691 4.5 50.8291 4.44 51.4158 4.44H53.5958C54.3824 4.44 55.1358 4.56667 55.8558 4.82C56.5758 5.06 57.2158 5.47333 57.7758 6.06L60.8358 3.88ZM46.7358 15.32C45.9891 14.68 45.3758 14.0733 44.8958 13.5C44.4158 12.9267 44.0358 12.3533 43.7558 11.78C43.4891 11.1933 43.3024 10.6 43.1958 10C43.0891 9.38667 43.0358 8.72 43.0358 8C43.0358 6.64 43.2424 5.48667 43.6558 4.54C44.0691 3.58 44.6424 2.8 45.3758 2.2C46.1224 1.6 47.0091 1.16667 48.0358 0.899999C49.0624 0.62 50.1891 0.48 51.4158 0.48H53.5958C54.3291 0.48 55.0358 0.513333 55.7158 0.58C56.3958 0.646666 57.0558 0.786666 57.6958 0.999999C58.3358 1.2 58.9491 1.50667 59.5358 1.92C60.1358 2.32 60.7158 2.86 61.2758 3.54C61.6758 3.94 62.0024 4.27333 62.2558 4.54C62.5091 4.80667 62.7091 5.03333 62.8558 5.22C63.0158 5.40667 63.1358 5.56 63.2158 5.68C63.3091 5.78667 63.3891 5.88667 63.4558 5.98L62.8558 6.4L64.3158 7.86V10C64.3158 11.3733 64.0891 12.5333 63.6358 13.48C63.1824 14.4267 62.5624 15.1933 61.7758 15.78C60.9891 16.38 60.0624 16.8067 58.9958 17.06C57.9424 17.3267 56.8091 17.46 55.5958 17.46H53.4158C52.0558 17.46 50.7891 17.2867 49.6158 16.94C48.4424 16.6067 47.4824 16.0667 46.7358 15.32ZM52.2358 7C51.8358 7.06667 51.4624 7.17333 51.1158 7.32C50.7824 7.45333 50.4891 7.64 50.2358 7.88C49.9824 8.12 49.7824 8.42 49.6358 8.78C49.5024 9.12667 49.4358 9.53333 49.4358 10C49.4358 10.32 49.4624 10.5867 49.5158 10.8C49.7958 10.8933 50.0958 10.96 50.4158 11C50.7358 11.04 51.0691 11.06 51.4158 11.06H53.2158L52.2358 10.2V7ZM82.848 13.9V2.1H84.048V13.9H82.848ZM85.148 15.02V0.979999H81.748V15.02H85.148ZM81.248 15.52V0.48H85.648L87.588 2.54V17.46H83.308L81.248 15.52ZM105.142 13.9L94.362 4V13.9H93.182V2.1H94.202L104.942 12V2.1H106.142V13.9H105.142ZM107.262 15.02V0.979999H103.842V9.48L94.582 0.979999H92.062V15.02H95.482V6.5L104.762 15.02H107.262ZM91.562 15.52V0.48H94.762L103.342 8.34V0.48H107.762L109.702 2.54V17.46H106.582L97.922 9.52V17.46H93.622L91.562 15.52Z" fill="white"/>
</svg>
