<svg width="111" height="14" viewBox="0 0 111 14" fill="none" xmlns="http://www.w3.org/2000/svg">
<path d="M12.7 0.499999C15.05 0.499999 16.95 2.4 16.95 4.725C16.95 7.075 15.05 8.975 12.7 8.975H3.7V14H0V5.55H12.425C12.875 5.55 13.25 5.175 13.25 4.725C13.25 4.275 12.875 3.9 12.425 3.9H0V0.499999H12.7ZM35.5443 14H30.5443L25.5193 8.975H21.6443V14H17.9443V0.499999H30.6443C32.9943 0.499999 34.8943 2.4 34.8943 4.725C34.8943 7.075 32.9943 8.975 30.6443 8.975H30.5193L35.5443 14ZM21.6443 3.9V5.55H30.3693C30.8193 5.55 31.1943 5.175 31.1943 4.725C31.1943 4.275 30.8193 3.9 30.3693 3.9H21.6443ZM49.1602 0.499999C52.1352 0.499999 54.5602 2.925 54.5602 5.9L54.5352 8.625C54.5352 11.6 52.1352 14 49.1602 14H41.4352C38.4602 14 36.0352 11.6 36.0352 8.625L36.0602 5.875C36.0602 2.9 38.4602 0.499999 41.4352 0.499999H49.1602ZM50.8352 8.925V5.6C50.8352 4.675 50.0852 3.925 49.1602 3.925H41.4352C40.5102 3.925 39.7352 4.675 39.7352 5.6V8.925C39.7352 9.85 40.5102 10.6 41.4352 10.6H49.1602C50.0852 10.6 50.8352 9.85 50.8352 8.925ZM71.5105 3.9H59.5105V5.55H68.1605V8.95H59.5105V14H55.8105V0.499999H71.5105V3.9ZM72.7539 14V0.499999H76.4539V14H72.7539ZM81.41 10.6H93.985V14H77.71V0.499999H81.41V10.6ZM110.939 3.9H98.9393V5.55H107.589V8.95H98.9393V10.6H110.939V14H95.2393V0.499999H110.939V3.9Z" fill="white"/>
</svg>
