<svg width="235" height="50" viewBox="0 0 235 50" fill="none" xmlns="http://www.w3.org/2000/svg">
<rect width="235" height="50" rx="8" fill="#F7F9FC"/>
<path d="M49.08 30H45.08L41.04 25.98H37.96V30H35V23.24H44.92C45.1067 23.24 45.26 23.18 45.38 23.06C45.5133 22.9267 45.58 22.7667 45.58 22.58C45.58 22.3933 45.5133 22.24 45.38 22.12C45.26 21.9867 45.1067 21.92 44.92 21.92H35V19.2H45.16C45.6267 19.2 46.06 19.2933 46.46 19.48C46.8733 19.6533 47.2333 19.8933 47.54 20.2C47.8467 20.5067 48.0867 20.8667 48.26 21.28C48.4467 21.68 48.54 22.1133 48.54 22.58C48.54 23.0467 48.4467 23.4867 48.26 23.9C48.0867 24.3133 47.8467 24.6733 47.54 24.98C47.2333 25.2867 46.8733 25.5333 46.46 25.72C46.06 25.8933 45.6267 25.98 45.16 25.98H45.04L49.08 30ZM52.4327 21.92V23.24H59.3527V25.96H52.4327V27.28H62.0327V30H49.4727V19.2H62.0327V21.92H52.4327ZM66.6473 21.94C66.4073 21.94 66.2007 22.0267 66.0273 22.2C65.854 22.3733 65.7673 22.58 65.7673 22.82V26.38C65.7673 26.6333 65.854 26.8467 66.0273 27.02C66.2007 27.1933 66.4073 27.28 66.6473 27.28H73.6473V26.08H70.4473V23.34H76.6073V30H66.6073C66.114 30 65.6473 29.9067 65.2073 29.72C64.7807 29.5333 64.4007 29.28 64.0673 28.96C63.7473 28.6267 63.494 28.2467 63.3073 27.82C63.1207 27.38 63.0273 26.9133 63.0273 26.42V22.78C63.0273 22.2867 63.1207 21.8267 63.3073 21.4C63.494 20.96 63.7473 20.58 64.0673 20.26C64.4007 19.9267 64.7807 19.6667 65.2073 19.48C65.6473 19.2933 66.114 19.2 66.6073 19.2H76.6073V21.94H66.6473ZM77.5977 19.2H80.5577V30H77.5977V19.2ZM85.1425 21.94C84.9558 21.94 84.7958 22.0067 84.6625 22.14C84.5425 22.26 84.4825 22.4133 84.4825 22.6C84.4825 22.7867 84.5425 22.94 84.6625 23.06C84.7958 23.18 84.9558 23.24 85.1425 23.24H91.9625C92.4292 23.24 92.8625 23.3333 93.2625 23.52C93.6758 23.6933 94.0358 23.9333 94.3425 24.24C94.6492 24.5467 94.8892 24.9067 95.0625 25.32C95.2358 25.72 95.3225 26.1533 95.3225 26.62C95.3225 27.0867 95.2358 27.5267 95.0625 27.94C94.8892 28.34 94.6492 28.6933 94.3425 29C94.0358 29.3067 93.6758 29.5533 93.2625 29.74C92.8625 29.9133 92.4292 30 91.9625 30H82.4825V27.26H91.7425C91.9292 27.26 92.0825 27.2 92.2025 27.08C92.3358 26.96 92.4025 26.8067 92.4025 26.62C92.4025 26.4333 92.3358 26.28 92.2025 26.16C92.0825 26.0267 91.9292 25.96 91.7425 25.96H84.9225C84.4558 25.96 84.0158 25.8733 83.6025 25.7C83.2025 25.5267 82.8492 25.2867 82.5425 24.98C82.2358 24.6733 81.9958 24.3133 81.8225 23.9C81.6492 23.4867 81.5625 23.0467 81.5625 22.58C81.5625 22.1133 81.6492 21.68 81.8225 21.28C81.9958 20.8667 82.2358 20.5067 82.5425 20.2C82.8492 19.8933 83.2025 19.6533 83.6025 19.48C84.0158 19.2933 84.4558 19.2 84.9225 19.2H94.4625V21.94H85.1425ZM109.768 21.92H104.108V30H101.148V21.92H95.5078V19.2H109.768V21.92ZM113.722 21.92V23.24H120.642V25.96H113.722V27.28H123.322V30H110.762V19.2H123.322V21.92H113.722ZM134.396 30L130.376 25.98H127.276V30H124.316V19.2H134.476C134.943 19.2 135.383 19.2933 135.796 19.48C136.21 19.6533 136.57 19.8933 136.876 20.2C137.183 20.5067 137.423 20.8667 137.596 21.28C137.783 21.68 137.876 22.1133 137.876 22.58C137.876 23.0467 137.783 23.4867 137.596 23.9C137.423 24.3133 137.183 24.6733 136.876 24.98C136.57 25.2867 136.21 25.5333 135.796 25.72C135.383 25.8933 134.943 25.98 134.476 25.98H134.376L138.396 30H134.396ZM127.276 23.24H134.256C134.443 23.24 134.596 23.18 134.716 23.06C134.85 22.9267 134.916 22.7667 134.916 22.58C134.916 22.3933 134.85 22.24 134.716 22.12C134.596 21.9867 134.443 21.92 134.256 21.92H127.276V23.24ZM157.329 23.34V30H154.369V26.08H146.749V30H143.789V19.2H146.749V23.34H157.329ZM154.369 22.04V19.2H157.329V22.04H154.369ZM161.28 21.92V23.24H168.2V25.96H161.28V27.28H170.88V30H158.32V19.2H170.88V21.92H161.28ZM181.955 30L177.935 25.98H174.835V30H171.875V19.2H182.035C182.502 19.2 182.942 19.2933 183.355 19.48C183.768 19.6533 184.128 19.8933 184.435 20.2C184.742 20.5067 184.982 20.8667 185.155 21.28C185.342 21.68 185.435 22.1133 185.435 22.58C185.435 23.0467 185.342 23.4867 185.155 23.9C184.982 24.3133 184.742 24.6733 184.435 24.98C184.128 25.2867 183.768 25.5333 183.355 25.72C182.942 25.8933 182.502 25.98 182.035 25.98H181.935L185.955 30H181.955ZM174.835 23.24H181.815C182.002 23.24 182.155 23.18 182.275 23.06C182.408 22.9267 182.475 22.7667 182.475 22.58C182.475 22.3933 182.408 22.24 182.275 22.12C182.155 21.9867 182.002 21.92 181.815 21.92H174.835V23.24ZM189.308 21.92V23.24H196.228V25.96H189.308V27.28H198.908V30H186.348V19.2H198.908V21.92H189.308Z" fill="#1E1E1E"/>
</svg>
