<svg width="249" height="10" viewBox="0 0 249 10" fill="none" xmlns="http://www.w3.org/2000/svg">
<path d="M9.036 6.382L12.672 10H9.072L5.436 6.382H2.664V10H0V3.916H8.928C9.252 3.916 9.522 3.646 9.522 3.322C9.522 2.998 9.252 2.728 8.928 2.728H0V0.28H9.144C10.818 0.28 12.186 1.648 12.186 3.322C12.186 5.014 10.818 6.382 9.144 6.382H9.036ZM21.8994 10H16.8954C14.7534 10 13.0254 8.254 13.0254 6.13V0.28H15.6894V6.346C15.6894 7.012 16.2294 7.552 16.8954 7.552H21.9174C22.5834 7.552 23.1234 7.012 23.1234 6.346V0.28H25.7874V6.13C25.7874 8.272 24.0414 10 21.8994 10ZM29.3476 7.552H38.4016V10H26.6836V0.28H29.3476V7.552ZM50.6087 2.728H41.9687V3.916H48.1967V6.364H41.9687V7.552H50.6087V10H39.3047V0.28H50.6087V2.728ZM54.7259 2.746C54.4019 2.746 54.1319 3.016 54.1319 3.34C54.1319 3.664 54.4019 3.916 54.7259 3.916H60.8639C62.5379 3.916 63.8879 5.284 63.8879 6.958C63.8879 8.632 62.5379 10 60.8639 10H52.3319V7.534H60.6659C60.9899 7.534 61.2599 7.282 61.2599 6.958C61.2599 6.634 60.9899 6.364 60.6659 6.364H54.5279C52.8539 6.364 51.5039 5.014 51.5039 3.322C51.5039 1.648 52.8539 0.28 54.5279 0.28H63.1139V2.746H54.7259ZM83.9136 10H80.7996L80.0616 8.776H74.3196L75.7956 6.328H78.5856L76.4976 2.854L72.1956 10H69.0996L74.9316 0.28H78.0636L83.9136 10ZM96.4555 8.29L93.7915 5.536V0.28H96.4555V8.29ZM86.9335 0.28L96.4375 10H92.7655L86.9335 4.06V10H84.2695V0.28H86.9335ZM106.69 0.28C108.4 0.28 109.786 1.666 109.786 3.376V6.904C109.786 8.614 108.4 10 106.69 10H97.3477V3.916H100.012V7.552H106.33C106.762 7.552 107.122 7.192 107.122 6.742V3.538C107.122 3.106 106.762 2.746 106.33 2.746L97.3477 2.728V0.28H106.69ZM124.225 6.382L127.861 10H124.261L120.625 6.382H117.853V10H115.189V3.916H124.117C124.441 3.916 124.711 3.646 124.711 3.322C124.711 2.998 124.441 2.728 124.117 2.728H115.189V0.28H124.333C126.007 0.28 127.375 1.648 127.375 3.322C127.375 5.014 126.007 6.382 124.333 6.382H124.225ZM139.537 10H128.215V3.916H137.125V6.364H130.879V7.552H139.537V10ZM128.215 2.728V0.28H139.537V2.728H128.215ZM143.69 2.746C143.258 2.746 142.898 3.106 142.898 3.538V6.742C142.898 7.192 143.258 7.552 143.69 7.552H149.99V6.472H147.11V4.006H152.654V10H143.654C141.872 10 140.432 8.56 140.432 6.778V3.502C140.432 1.72 141.872 0.28 143.654 0.28H152.654V2.746H143.69ZM159.323 7.552V10H157.397C155.273 10 153.545 8.254 153.545 6.13V0.28H156.209V6.346C156.209 7.012 156.749 7.552 157.415 7.552H159.323ZM163.643 0.28H166.289V6.13C166.289 8.272 164.561 10 162.419 10H160.511V7.552H162.419C163.085 7.552 163.643 7.012 163.643 6.346V0.28ZM169.85 7.552H178.904V10H167.186V0.28H169.85V7.552ZM194.076 10H190.962L190.224 8.776H184.482L185.958 6.328H188.748L186.66 2.854L182.358 10H179.262L185.094 0.28H188.226L194.076 10ZM198.937 0.28V10H196.291V2.728H191.197V0.28H198.937ZM200.125 0.28H204.031V2.728H200.125V0.28ZM204.926 10V0.28H207.59V10H204.926ZM217.944 0.28C220.086 0.28 221.814 2.026 221.814 4.168V6.13C221.814 8.272 220.068 10 217.944 10H215.748V7.552H217.944C218.61 7.552 219.15 7.012 219.15 6.346V3.952C219.15 3.286 218.61 2.746 217.944 2.746H212.364C211.698 2.746 211.158 3.286 211.158 3.952V6.346C211.158 7.012 211.698 7.552 212.364 7.552H214.56V10H212.364C210.222 10 208.494 8.272 208.494 6.13V4.15C208.494 2.008 210.24 0.28 212.364 0.28H217.944ZM234.901 8.29L232.237 5.536V0.28H234.901V8.29ZM225.379 0.28L234.883 10H231.211L225.379 4.06V10H222.715V0.28H225.379ZM247.367 0.28V2.746H235.793C236.063 1.342 237.305 0.28 238.781 0.28H247.367ZM245.099 3.916C246.791 3.916 248.141 5.284 248.141 6.958C248.141 8.632 246.791 10 245.099 10H236.585V7.534H244.919C245.243 7.534 245.495 7.282 245.495 6.958C245.495 6.634 245.243 6.364 244.919 6.364H238.781C237.305 6.364 236.081 5.32 235.811 3.916H245.099Z" fill="white"/>
</svg>
