<svg width="137" height="18" viewBox="0 0 137 18" fill="none" xmlns="http://www.w3.org/2000/svg">
<path d="M3.66 11.16C4.08667 11.5733 4.56 11.8867 5.08 12.1C5.6 12.3133 6.14 12.4667 6.7 12.56C7.26 12.64 7.83333 12.6867 8.42 12.7C9.00667 12.7 9.57333 12.7 10.12 12.7C10.32 12.7 10.5867 12.6933 10.92 12.68C11.2667 12.6667 11.6333 12.64 12.02 12.6C12.42 12.5467 12.82 12.48 13.22 12.4C13.62 12.3067 13.98 12.1867 14.3 12.04C14.6333 11.8933 14.9 11.72 15.1 11.52C15.3133 11.3067 15.42 11.0533 15.42 10.76C15.42 10.4667 15.3067 10.2133 15.08 10C14.8667 9.77333 14.5867 9.58 14.24 9.42C13.8933 9.26 13.5 9.12667 13.06 9.02C12.6333 8.9 12.2067 8.81333 11.78 8.76C11.3533 8.69333 10.9533 8.64667 10.58 8.62C10.22 8.59333 9.92667 8.58 9.7 8.58H9.72C9.4 8.56667 9.00667 8.53333 8.54 8.48C8.07333 8.42667 7.58667 8.34667 7.08 8.24C6.57333 8.13333 6.06667 8 5.56 7.84C5.05333 7.66667 4.6 7.46 4.2 7.22C3.8 6.98 3.47333 6.7 3.22 6.38C2.96667 6.04667 2.84 5.66667 2.84 5.24C2.84 4.77333 2.96 4.37333 3.2 4.04C3.45333 3.70667 3.77333 3.42667 4.16 3.2C4.56 2.96 5.00667 2.77333 5.5 2.64C5.99333 2.49333 6.49333 2.38 7 2.3C7.50667 2.22 7.98667 2.16667 8.44 2.14C8.90667 2.11333 9.3 2.1 9.62 2.1C10.14 2.1 10.6667 2.12667 11.2 2.18C11.7467 2.22 12.28 2.3 12.8 2.42C13.32 2.54 13.8267 2.70667 14.32 2.92C14.8133 3.12 15.2667 3.38 15.68 3.7L14.62 4.46C14.2333 4.19333 13.8267 3.98667 13.4 3.84C12.9733 3.68 12.5333 3.56 12.08 3.48C11.6267 3.4 11.1667 3.35333 10.7 3.34C10.2333 3.31333 9.78 3.3 9.34 3.3C9.03333 3.3 8.61333 3.32 8.08 3.36C7.56 3.4 7.04 3.48667 6.52 3.62C6.01333 3.74 5.57333 3.93333 5.2 4.2C4.82667 4.45333 4.64 4.8 4.64 5.24C4.64 5.66667 4.82 6.01333 5.18 6.28C5.54 6.53333 6.01333 6.74 6.6 6.9C7.18667 7.04667 7.85333 7.16667 8.6 7.26C9.36 7.34 10.1333 7.42667 10.92 7.52C11.7067 7.61333 12.4733 7.72667 13.22 7.86C13.98 7.98 14.6533 8.16 15.24 8.4C15.8267 8.62667 16.3 8.93333 16.66 9.32C17.02 9.69333 17.2 10.1733 17.2 10.76C17.2 11.1733 17.0733 11.54 16.82 11.86C16.58 12.18 16.26 12.46 15.86 12.7C15.46 12.9267 15.0067 13.12 14.5 13.28C14.0067 13.4267 13.5067 13.5467 13 13.64C12.5067 13.7333 12.0333 13.8 11.58 13.84C11.1267 13.88 10.7533 13.9 10.46 13.9H8.96C8.41333 13.9 7.84 13.88 7.24 13.84C6.64 13.8 6.05333 13.7133 5.48 13.58C4.90667 13.4333 4.36 13.2333 3.84 12.98C3.32 12.7267 2.86 12.38 2.46 11.94L3.66 11.16ZM0.8 11.52C1.33333 12.3867 1.96667 13.06 2.7 13.54C3.43333 14.0067 4.22667 14.3533 5.08 14.58C5.93333 14.7933 6.81333 14.92 7.72 14.96C8.64 15 9.55333 15.02 10.46 15.02C10.86 15.02 11.3333 14.9933 11.88 14.94C12.4267 14.8733 12.9933 14.7733 13.58 14.64C14.1667 14.5067 14.74 14.3333 15.3 14.12C15.8733 13.8933 16.38 13.6267 16.82 13.32C17.2733 13 17.6333 12.6333 17.9 12.22C18.18 11.7933 18.32 11.3067 18.32 10.76C18.32 10.1067 18.1733 9.55333 17.88 9.1C17.6 8.63333 17.2267 8.24667 16.76 7.94C16.3067 7.62 15.78 7.36667 15.18 7.18C14.5933 6.98 13.9867 6.82667 13.36 6.72C12.7333 6.61333 12.12 6.53333 11.52 6.48C10.92 6.42667 10.3867 6.38 9.92 6.34C9.76 6.32667 9.45333 6.3 9 6.26C8.54667 6.20667 8.08 6.14 7.6 6.06C7.12 5.96667 6.69333 5.85333 6.32 5.72C5.94667 5.58667 5.76 5.42667 5.76 5.24C5.76 5.02667 5.93333 4.86667 6.28 4.76C6.62667 4.65333 7.02 4.57333 7.46 4.52C7.91333 4.46667 8.34667 4.44 8.76 4.44C9.18667 4.42667 9.47333 4.42 9.62 4.42C10.0467 4.42 10.48 4.44 10.92 4.48C11.36 4.50667 11.7867 4.57333 12.2 4.68C12.6267 4.78667 13.0267 4.94 13.4 5.14C13.7867 5.34 14.14 5.6 14.46 5.92L17.38 3.96C16.8733 3.26667 16.3 2.72667 15.66 2.34C15.02 1.94 14.34 1.64 13.62 1.44C12.9 1.24 12.1467 1.11333 11.36 1.06C10.5867 1.00667 9.80667 0.979999 9.02 0.979999C8.60667 0.979999 8.13333 1.01333 7.6 1.08C7.08 1.13333 6.54667 1.22667 6 1.36C5.46667 1.49333 4.94 1.66667 4.42 1.88C3.91333 2.09333 3.46 2.36 3.06 2.68C2.66 3 2.34 3.37333 2.1 3.8C1.86 4.21333 1.74 4.69333 1.74 5.24C1.74 5.86667 1.89333 6.40667 2.2 6.86C2.50667 7.31333 2.91333 7.7 3.42 8.02C3.92667 8.34 4.5 8.6 5.14 8.8C5.78 9 6.42667 9.16667 7.08 9.3C7.74667 9.42 8.38667 9.52 9 9.6C9.62667 9.66667 10.1733 9.72667 10.64 9.78C10.7733 9.79333 11.0333 9.82 11.42 9.86C11.82 9.9 12.2333 9.96 12.66 10.04C13.0867 10.1067 13.4667 10.2 13.8 10.32C14.1333 10.44 14.3 10.5867 14.3 10.76C14.3 10.9067 14.1933 11.0333 13.98 11.14C13.7667 11.2333 13.4933 11.3133 13.16 11.38C12.8267 11.4333 12.46 11.4733 12.06 11.5C11.66 11.5267 11.2667 11.5467 10.88 11.56C10.5067 11.5733 10.1667 11.58 9.86 11.58C9.56667 11.58 9.36 11.58 9.24 11.58C8.73333 11.58 8.23333 11.56 7.74 11.52C7.24667 11.4667 6.76667 11.3733 6.3 11.24C5.83333 11.0933 5.39333 10.8933 4.98 10.64C4.56667 10.3867 4.19333 10.0467 3.86 9.62L0.8 11.52ZM3.7 9.12L2.74 8.14C2.27333 7.79333 1.90667 7.38667 1.64 6.92C1.37333 6.44 1.24 5.88 1.24 5.24C1.24 4.62667 1.36667 4.08667 1.62 3.62C1.88667 3.14 2.23333 2.72667 2.66 2.38C3.08667 2.03333 3.57333 1.74 4.12 1.5C4.66667 1.24667 5.22667 1.04667 5.8 0.899999C6.37333 0.753333 6.94 0.646666 7.5 0.58C8.06 0.513333 8.56667 0.48 9.02 0.48C9.80667 0.48 10.6 0.506666 11.4 0.559999C12.2 0.599999 12.98 0.719999 13.74 0.919999C14.5133 1.12 15.2533 1.42667 15.96 1.84C16.6667 2.25333 17.3267 2.83333 17.94 3.58C18.3533 3.99333 18.68 4.34 18.92 4.62C19.16 4.88667 19.3467 5.11333 19.48 5.3C19.6267 5.48667 19.7333 5.64 19.8 5.76C19.8667 5.86667 19.9333 5.96667 20 6.06L17.44 7.78C17.5067 7.84667 17.58 7.90667 17.66 7.96C17.7533 8 17.88 8.08667 18.04 8.22C18.2 8.35333 18.4067 8.54667 18.66 8.8C18.9267 9.04 19.28 9.38667 19.72 9.84C20.04 10.1733 20.2933 10.6 20.48 11.12C20.6667 11.64 20.76 12.1867 20.76 12.76C20.76 13.36 20.6133 13.8933 20.32 14.36C20.0267 14.8267 19.6467 15.2333 19.18 15.58C18.7133 15.9267 18.18 16.22 17.58 16.46C16.98 16.7 16.3733 16.8933 15.76 17.04C15.1467 17.1867 14.5467 17.2933 13.96 17.36C13.3867 17.4267 12.8867 17.46 12.46 17.46C11.6733 17.46 10.8733 17.46 10.06 17.46C9.24667 17.46 8.44667 17.3933 7.66 17.26C6.88667 17.1267 6.13333 16.9067 5.4 16.6C4.66667 16.2933 3.99333 15.8267 3.38 15.2C2.86 14.72 2.42 14.3 2.06 13.94C1.71333 13.5667 1.41333 13.2333 1.16 12.94C0.92 12.6333 0.713333 12.3533 0.54 12.1C0.38 11.8467 0.226667 11.6 0.08 11.36L3.7 9.12ZM24.3503 2.1H25.5503V13.9H24.3503V2.1ZM26.6503 0.979999H23.2503V15.02H26.6503V0.979999ZM22.7503 15.52V0.48H27.1503L29.0903 2.54V17.46H24.8103L22.7503 15.52ZM47.7537 4.52C47.1537 4.06667 46.4804 3.75333 45.7337 3.58C45.0004 3.40667 44.2604 3.32 43.5137 3.32H41.3337C40.5604 3.32 39.8337 3.40667 39.1537 3.58C38.4871 3.74 37.9071 4.00667 37.4137 4.38C36.9204 4.74 36.5271 5.22 36.2337 5.82C35.9537 6.42 35.8137 7.14667 35.8137 8C35.8137 8.86667 35.9537 9.6 36.2337 10.2C36.5137 10.7867 36.9004 11.2667 37.3937 11.64C37.9004 12 38.4871 12.2667 39.1537 12.44C39.8204 12.6 40.5471 12.68 41.3337 12.68H43.5137C44.2071 12.68 44.8671 12.6067 45.4937 12.46C46.1337 12.3 46.7071 12.06 47.2137 11.74C47.7204 11.4067 48.1537 10.9867 48.5137 10.48C48.8737 9.96 49.1337 9.33333 49.2937 8.6H43.7737V7.4H50.6937V8C50.6937 9.10667 50.5004 10.04 50.1137 10.8C49.7271 11.5467 49.2071 12.1533 48.5537 12.62C47.9004 13.0733 47.1404 13.4 46.2737 13.6C45.4071 13.8 44.4871 13.9 43.5137 13.9H41.3337C40.3604 13.9 39.4604 13.7933 38.6337 13.58C37.8071 13.3667 37.0871 13.0267 36.4737 12.56C35.8737 12.0933 35.4004 11.4867 35.0537 10.74C34.7071 9.99333 34.5337 9.08 34.5337 8C34.5337 6.92 34.7071 6.00667 35.0537 5.26C35.4004 4.51333 35.8737 3.90667 36.4737 3.44C37.0871 2.97333 37.8071 2.63333 38.6337 2.42C39.4604 2.20667 40.3604 2.1 41.3337 2.1H43.5137C44.0071 2.1 44.5004 2.12 44.9937 2.16C45.4871 2.18667 45.9671 2.25333 46.4337 2.36C46.9004 2.46667 47.3537 2.62 47.7937 2.82C48.2471 3.00667 48.6671 3.26667 49.0537 3.6L47.7537 4.52ZM50.7537 3.88C50.2871 3.26667 49.7804 2.77333 49.2337 2.4C48.6871 2.02667 48.1071 1.73333 47.4937 1.52C46.8937 1.30667 46.2604 1.16667 45.5937 1.1C44.9271 1.02 44.2337 0.979999 43.5137 0.979999H41.3337C40.1737 0.979999 39.1137 1.11333 38.1537 1.38C37.1937 1.63333 36.3604 2.04 35.6537 2.6C34.9604 3.16 34.4204 3.88667 34.0337 4.78C33.6471 5.66 33.4537 6.73333 33.4537 8C33.4537 9.26667 33.6471 10.3467 34.0337 11.24C34.4204 12.12 34.9604 12.84 35.6537 13.4C36.3604 13.96 37.1937 14.3733 38.1537 14.64C39.1137 14.8933 40.1737 15.02 41.3337 15.02H43.5137C44.6604 15.02 45.7337 14.9 46.7337 14.66C47.7471 14.4067 48.6271 14.0067 49.3737 13.46C50.1204 12.9 50.7071 12.1733 51.1337 11.28C51.5737 10.3867 51.7937 9.29333 51.7937 8V6.3H42.6537V9.7H47.8537C47.6404 10.06 47.3671 10.36 47.0337 10.6C46.7004 10.84 46.3337 11.0333 45.9337 11.18C45.5471 11.3133 45.1404 11.4133 44.7137 11.48C44.3004 11.5333 43.9004 11.56 43.5137 11.56H41.3337C40.7337 11.56 40.1671 11.5 39.6337 11.38C39.1004 11.26 38.6337 11.0667 38.2337 10.8C37.8337 10.52 37.5137 10.1533 37.2737 9.7C37.0337 9.24667 36.9137 8.68 36.9137 8C36.9137 7.33333 37.0337 6.77333 37.2737 6.32C37.5137 5.86667 37.8337 5.5 38.2337 5.22C38.6471 4.94 39.1204 4.74 39.6537 4.62C40.1871 4.5 40.7471 4.44 41.3337 4.44H43.5137C44.3004 4.44 45.0537 4.56667 45.7737 4.82C46.4937 5.06 47.1337 5.47333 47.6937 6.06L50.7537 3.88ZM36.6537 15.32C35.9071 14.68 35.2937 14.0733 34.8137 13.5C34.3337 12.9267 33.9537 12.3533 33.6737 11.78C33.4071 11.1933 33.2204 10.6 33.1137 10C33.0071 9.38667 32.9537 8.72 32.9537 8C32.9537 6.64 33.1604 5.48667 33.5737 4.54C33.9871 3.58 34.5604 2.8 35.2937 2.2C36.0404 1.6 36.9271 1.16667 37.9537 0.899999C38.9804 0.62 40.1071 0.48 41.3337 0.48H43.5137C44.2471 0.48 44.9537 0.513333 45.6337 0.58C46.3137 0.646666 46.9737 0.786666 47.6137 0.999999C48.2537 1.2 48.8671 1.50667 49.4537 1.92C50.0537 2.32 50.6337 2.86 51.1937 3.54C51.5937 3.94 51.9204 4.27333 52.1737 4.54C52.4271 4.80667 52.6271 5.03333 52.7737 5.22C52.9337 5.40667 53.0537 5.56 53.1337 5.68C53.2271 5.78667 53.3071 5.88667 53.3737 5.98L52.7737 6.4L54.2337 7.86V10C54.2337 11.3733 54.0071 12.5333 53.5538 13.48C53.1004 14.4267 52.4804 15.1933 51.6937 15.78C50.9071 16.38 49.9804 16.8067 48.9137 17.06C47.8604 17.3267 46.7271 17.46 45.5137 17.46H43.3337C41.9737 17.46 40.7071 17.2867 39.5337 16.94C38.3604 16.6067 37.4004 16.0667 36.6537 15.32ZM42.1537 7C41.7537 7.06667 41.3804 7.17333 41.0337 7.32C40.7004 7.45333 40.4071 7.64 40.1537 7.88C39.9004 8.12 39.7004 8.42 39.5537 8.78C39.4204 9.12667 39.3537 9.53333 39.3537 10C39.3537 10.32 39.3804 10.5867 39.4337 10.8C39.7137 10.8933 40.0137 10.96 40.3337 11C40.6537 11.04 40.9871 11.06 41.3337 11.06H43.1337L42.1537 10.2V7ZM60.8441 4V13.9H59.6641V2.1H60.6841L71.4241 12V2.1H72.6241V13.9H71.6241L60.8441 4ZM73.7441 0.979999H70.3241V9.48L61.0641 0.979999H58.5441V15.02H61.9641V6.5L71.2441 15.02H73.7441V0.979999ZM58.0441 15.52V0.48H61.2441L69.8241 8.34V0.48H74.2441L76.1841 2.54V17.46H73.0641L64.4041 9.52V17.46H60.1041L58.0441 15.52ZM95.9291 2.1V8C95.9291 8.86667 96.0691 9.6 96.3491 10.2C96.6291 10.7867 97.0157 11.2667 97.5091 11.64C98.0157 12 98.6024 12.2667 99.2691 12.44C99.9357 12.6 100.662 12.68 101.449 12.68H103.649C104.422 12.68 105.142 12.6 105.809 12.44C106.489 12.2667 107.076 12 107.569 11.64C108.076 11.2667 108.469 10.7867 108.749 10.2C109.042 9.6 109.189 8.86667 109.189 8V2.1H110.449V8C110.449 9.08 110.276 9.99333 109.929 10.74C109.582 11.4867 109.102 12.1 108.489 12.58C107.889 13.0467 107.176 13.3867 106.349 13.6C105.522 13.8 104.622 13.9 103.649 13.9H101.449C100.476 13.9 99.5691 13.8 98.7291 13.6C97.9024 13.3867 97.1824 13.0467 96.5691 12.58C95.9691 12.1 95.4957 11.4867 95.1491 10.74C94.8157 9.99333 94.6491 9.08 94.6491 8V2.1H95.9291ZM93.5491 8C93.5491 9.26667 93.7424 10.3467 94.1291 11.24C94.5157 12.12 95.0557 12.84 95.7491 13.4C96.4557 13.96 97.2891 14.3733 98.2491 14.64C99.2224 14.8933 100.289 15.02 101.449 15.02H103.649C104.809 15.02 105.869 14.8933 106.829 14.64C107.802 14.3733 108.636 13.96 109.329 13.4C110.036 12.84 110.582 12.12 110.969 11.24C111.356 10.3467 111.549 9.26667 111.549 8V0.979999H108.069V8C108.069 8.68 107.949 9.24667 107.709 9.7C107.469 10.1533 107.149 10.52 106.749 10.8C106.349 11.0667 105.882 11.26 105.349 11.38C104.816 11.5 104.249 11.56 103.649 11.56H101.449C100.849 11.56 100.282 11.5 99.7491 11.38C99.2157 11.26 98.7491 11.06 98.3491 10.78C97.9491 10.5 97.6291 10.1333 97.3891 9.68C97.1624 9.22667 97.0491 8.66667 97.0491 8V0.979999H93.5491V8ZM93.0491 0.48H97.5491L99.4891 2.54V10C99.4891 10.1467 99.4891 10.2867 99.4891 10.42C99.5024 10.5533 99.5224 10.68 99.5491 10.8C100.109 10.9733 100.742 11.06 101.449 11.06H103.649C104.169 11.06 104.662 11.0133 105.129 10.92C105.609 10.8133 106.029 10.64 106.389 10.4C106.749 10.16 107.036 9.84667 107.249 9.46C107.462 9.07333 107.569 8.58667 107.569 8V0.48H112.049L113.989 2.54V10C113.989 11.3467 113.782 12.4933 113.369 13.44C112.956 14.3867 112.382 15.1533 111.649 15.74C110.916 16.34 110.036 16.7733 109.009 17.04C107.982 17.32 106.862 17.46 105.649 17.46H103.449C102.769 17.46 102.109 17.4267 101.469 17.36C100.842 17.2933 100.242 17.18 99.6691 17.02C99.1091 16.8733 98.5891 16.6733 98.1091 16.42C97.6291 16.1667 97.2024 15.8533 96.8291 15.48C96.0691 14.8267 95.4424 14.2067 94.9491 13.62C94.4691 13.02 94.0891 12.42 93.8091 11.82C93.5291 11.22 93.3291 10.6133 93.2091 10C93.1024 9.37333 93.0491 8.70667 93.0491 8V0.48ZM129.306 4.44C129.466 4.44 129.626 4.45333 129.786 4.48C129.959 4.50667 130.113 4.55333 130.246 4.62C130.393 4.68667 130.513 4.78 130.606 4.9C130.699 5.02 130.746 5.18 130.746 5.38C130.746 5.56667 130.693 5.72 130.586 5.84C130.493 5.96 130.373 6.05333 130.226 6.12C130.079 6.18667 129.919 6.23333 129.746 6.26C129.573 6.28667 129.419 6.3 129.286 6.3H121.886V4.44H129.306ZM129.286 7.4C129.606 7.4 129.919 7.36667 130.226 7.3C130.546 7.22 130.826 7.1 131.066 6.94C131.306 6.78 131.499 6.57333 131.646 6.32C131.793 6.05333 131.866 5.74 131.866 5.38C131.866 5.00667 131.793 4.69333 131.646 4.44C131.513 4.17333 131.326 3.96 131.086 3.8C130.859 3.62667 130.586 3.50667 130.266 3.44C129.959 3.36 129.639 3.32 129.306 3.32H120.766V7.4H129.286ZM120.766 13.9H119.546V2.1H129.306C129.853 2.1 130.359 2.16667 130.826 2.3C131.293 2.42 131.693 2.61333 132.026 2.88C132.373 3.13333 132.639 3.47333 132.826 3.9C133.026 4.31333 133.126 4.80667 133.126 5.38C133.126 6.11333 132.953 6.72 132.606 7.2C132.273 7.66667 131.773 8.03333 131.106 8.3V8.32C130.799 8.42667 130.373 8.50667 129.826 8.56C129.279 8.61333 128.666 8.65333 127.986 8.68C127.319 8.69333 126.619 8.7 125.886 8.7C125.153 8.7 124.453 8.69333 123.786 8.68C123.119 8.65333 122.519 8.63333 121.986 8.62C121.453 8.60667 121.046 8.6 120.766 8.6V13.9ZM134.246 5.38C134.246 4.62 134.126 3.96667 133.886 3.42C133.646 2.86 133.306 2.4 132.866 2.04C132.439 1.68 131.919 1.41333 131.306 1.24C130.706 1.06667 130.039 0.979999 129.306 0.979999H118.426V15.02H121.886V9.7C122.206 9.7 122.619 9.70667 123.126 9.72C123.646 9.73333 124.206 9.75333 124.806 9.78C125.406 9.79333 126.033 9.8 126.686 9.8C127.339 9.8 127.966 9.78667 128.566 9.76C129.179 9.73333 129.746 9.68667 130.266 9.62C130.786 9.55333 131.219 9.46 131.566 9.34V9.32C132.446 8.94667 133.113 8.44 133.566 7.8C134.019 7.16 134.246 6.35333 134.246 5.38ZM117.926 15.52V0.48H129.306C129.826 0.48 130.333 0.52 130.826 0.599999C131.333 0.666666 131.839 0.819999 132.346 1.06C132.866 1.28667 133.399 1.61333 133.946 2.04C134.493 2.46667 135.066 3.03333 135.666 3.74C136.053 4.12667 136.319 4.64 136.466 5.28C136.613 5.92 136.686 6.62 136.686 7.38C136.686 8.46 136.433 9.35333 135.926 10.06C135.433 10.7667 134.699 11.3333 133.726 11.76C133.459 11.8533 133.139 11.9333 132.766 12C132.406 12.0533 132.006 12.1 131.566 12.14C131.126 12.18 130.659 12.2067 130.166 12.22C129.686 12.2333 129.199 12.24 128.706 12.24C127.986 12.24 127.273 12.24 126.566 12.24C125.859 12.24 125.113 12.2333 124.326 12.22V17.46H119.986L117.926 15.52Z" fill="white"/>
</svg>
