<svg width="150" height="14" viewBox="0 0 150 14" fill="none" xmlns="http://www.w3.org/2000/svg">
<mask id="path-1-outside-1_6084_320" maskUnits="userSpaceOnUse" x="-1" y="-1" width="153" height="16" fill="black">
<rect fill="white" x="-1" y="-1" width="153" height="16"/>
<path d="M10.75 0.499999V14H7.075V3.9H0V0.499999H10.75ZM12.4 0.499999H17.825V3.9H12.4V0.499999ZM34.7674 3.9H22.7674V5.55H31.4174V8.95H22.7674V10.6H34.7674V14H19.0674V0.499999H34.7674V3.9ZM39.7107 5.025V9.475C39.7107 10.1 40.2107 10.6 40.8357 10.6H52.1857V14H40.3107C37.9357 14 36.0107 12.075 36.0107 9.7V4.8C36.0107 2.425 37.9357 0.499999 40.3107 0.499999H52.1857V3.925H40.8357C40.2107 3.925 39.7107 4.425 39.7107 5.025ZM70.3924 0.499999V14H66.6924V9.1H57.1424V14H53.4424V0.499999H57.1424V5.675H66.6924V0.499999H70.3924ZM90.4059 14H85.1809L80.2059 9.025L75.3309 14H71.6309V0.499999H75.3309V8.7L83.4059 0.499999H88.5559L82.7809 6.375L90.4059 14ZM108.518 14H103.518L98.493 8.975H94.618V14H90.918V0.499999H103.618C105.968 0.499999 107.868 2.4 107.868 4.725C107.868 7.075 105.968 8.975 103.618 8.975H103.493L108.518 14ZM94.618 3.9V5.55H103.343C103.793 5.55 104.168 5.175 104.168 4.725C104.168 4.275 103.793 3.9 103.343 3.9H94.618ZM109.009 14V0.499999H112.709V14H109.009ZM134.183 0.499999L125.658 9.025V14H121.733V9.025L113.208 0.499999H118.433L123.708 5.75L128.958 0.499999H134.183ZM144.962 14L143.937 12.3H134.037L133.012 14H128.687L136.812 0.499999H141.137L149.262 14H144.962ZM136.087 8.9H141.887L138.987 4.075L136.087 8.9Z"/>
</mask>
<path d="M10.75 0.499999V14H7.075V3.9H0V0.499999H10.75ZM12.4 0.499999H17.825V3.9H12.4V0.499999ZM34.7674 3.9H22.7674V5.55H31.4174V8.95H22.7674V10.6H34.7674V14H19.0674V0.499999H34.7674V3.9ZM39.7107 5.025V9.475C39.7107 10.1 40.2107 10.6 40.8357 10.6H52.1857V14H40.3107C37.9357 14 36.0107 12.075 36.0107 9.7V4.8C36.0107 2.425 37.9357 0.499999 40.3107 0.499999H52.1857V3.925H40.8357C40.2107 3.925 39.7107 4.425 39.7107 5.025ZM70.3924 0.499999V14H66.6924V9.1H57.1424V14H53.4424V0.499999H57.1424V5.675H66.6924V0.499999H70.3924ZM90.4059 14H85.1809L80.2059 9.025L75.3309 14H71.6309V0.499999H75.3309V8.7L83.4059 0.499999H88.5559L82.7809 6.375L90.4059 14ZM108.518 14H103.518L98.493 8.975H94.618V14H90.918V0.499999H103.618C105.968 0.499999 107.868 2.4 107.868 4.725C107.868 7.075 105.968 8.975 103.618 8.975H103.493L108.518 14ZM94.618 3.9V5.55H103.343C103.793 5.55 104.168 5.175 104.168 4.725C104.168 4.275 103.793 3.9 103.343 3.9H94.618ZM109.009 14V0.499999H112.709V14H109.009ZM134.183 0.499999L125.658 9.025V14H121.733V9.025L113.208 0.499999H118.433L123.708 5.75L128.958 0.499999H134.183ZM144.962 14L143.937 12.3H134.037L133.012 14H128.687L136.812 0.499999H141.137L149.262 14H144.962ZM136.087 8.9H141.887L138.987 4.075L136.087 8.9Z" fill="white"/>
<path d="M10.75 0.5H11.75V-0.5H10.75V0.5ZM10.75 14V15H11.75V14H10.75ZM7.075 14H6.075V15H7.075V14ZM7.075 3.9H8.075V2.9H7.075V3.9ZM0 3.9H-1V4.9H0V3.9ZM0 0.5V-0.5H-1V0.5H0ZM12.4 0.5V-0.5H11.4V0.5H12.4ZM17.825 0.5H18.825V-0.5H17.825V0.5ZM17.825 3.9V4.9H18.825V3.9H17.825ZM12.4 3.9H11.4V4.9H12.4V3.9ZM9.75 0.5V14H11.75V0.5H9.75ZM10.75 13H7.075V15H10.75V13ZM8.075 14V3.9H6.075V14H8.075ZM7.075 2.9H0V4.9H7.075V2.9ZM1 3.9V0.5H-1V3.9H1ZM0 1.5H10.75V-0.5H0V1.5ZM12.4 1.5H17.825V-0.5H12.4V1.5ZM16.825 0.5V3.9H18.825V0.5H16.825ZM17.825 2.9H12.4V4.9H17.825V2.9ZM13.4 3.9V0.5H11.4V3.9H13.4ZM34.7674 3.9V4.9H35.7674V3.9H34.7674ZM22.7674 3.9V2.9H21.7674V3.9H22.7674ZM22.7674 5.55H21.7674V6.55H22.7674V5.55ZM31.4174 5.55H32.4174V4.55H31.4174V5.55ZM31.4174 8.95V9.95H32.4174V8.95H31.4174ZM22.7674 8.95V7.95H21.7674V8.95H22.7674ZM22.7674 10.6H21.7674V11.6H22.7674V10.6ZM34.7674 10.6H35.7674V9.6H34.7674V10.6ZM34.7674 14V15H35.7674V14H34.7674ZM19.0674 14H18.0674V15H19.0674V14ZM19.0674 0.5V-0.5H18.0674V0.5H19.0674ZM34.7674 0.5H35.7674V-0.5H34.7674V0.5ZM34.7674 2.9H22.7674V4.9H34.7674V2.9ZM21.7674 3.9V5.55H23.7674V3.9H21.7674ZM22.7674 6.55H31.4174V4.55H22.7674V6.55ZM30.4174 5.55V8.95H32.4174V5.55H30.4174ZM31.4174 7.95H22.7674V9.95H31.4174V7.95ZM21.7674 8.95V10.6H23.7674V8.95H21.7674ZM22.7674 11.6H34.7674V9.6H22.7674V11.6ZM33.7674 10.6V14H35.7674V10.6H33.7674ZM34.7674 13H19.0674V15H34.7674V13ZM20.0674 14V0.5H18.0674V14H20.0674ZM19.0674 1.5H34.7674V-0.5H19.0674V1.5ZM33.7674 0.5V3.9H35.7674V0.5H33.7674ZM52.1857 10.6H53.1857V9.6H52.1857V10.6ZM52.1857 14V15H53.1857V14H52.1857ZM52.1857 0.5H53.1857V-0.5H52.1857V0.5ZM52.1857 3.925V4.925H53.1857V3.925H52.1857ZM38.7107 5.025V9.475H40.7107V5.025H38.7107ZM38.7107 9.475C38.7107 10.6523 39.6585 11.6 40.8357 11.6V9.6C40.763 9.6 40.7107 9.54772 40.7107 9.475H38.7107ZM40.8357 11.6H52.1857V9.6H40.8357V11.6ZM51.1857 10.6V14H53.1857V10.6H51.1857ZM52.1857 13H40.3107V15H52.1857V13ZM40.3107 13C38.488 13 37.0107 11.5227 37.0107 9.7H35.0107C35.0107 12.6273 37.3835 15 40.3107 15V13ZM37.0107 9.7V4.8H35.0107V9.7H37.0107ZM37.0107 4.8C37.0107 2.97728 38.488 1.5 40.3107 1.5V-0.5C37.3835 -0.5 35.0107 1.87271 35.0107 4.8H37.0107ZM40.3107 1.5H52.1857V-0.5H40.3107V1.5ZM51.1857 0.5V3.925H53.1857V0.5H51.1857ZM52.1857 2.925H40.8357V4.925H52.1857V2.925ZM40.8357 2.925C39.6731 2.925 38.7107 3.85815 38.7107 5.025H40.7107C40.7107 5.00835 40.7169 4.98573 40.7405 4.96257C40.7633 4.94005 40.7952 4.925 40.8357 4.925V2.925ZM70.3924 0.5H71.3924V-0.5H70.3924V0.5ZM70.3924 14V15H71.3924V14H70.3924ZM66.6924 14H65.6924V15H66.6924V14ZM66.6924 9.1H67.6924V8.1H66.6924V9.1ZM57.1424 9.1V8.1H56.1424V9.1H57.1424ZM57.1424 14V15H58.1424V14H57.1424ZM53.4424 14H52.4424V15H53.4424V14ZM53.4424 0.5V-0.5H52.4424V0.5H53.4424ZM57.1424 0.5H58.1424V-0.5H57.1424V0.5ZM57.1424 5.675H56.1424V6.675H57.1424V5.675ZM66.6924 5.675V6.675H67.6924V5.675H66.6924ZM66.6924 0.5V-0.5H65.6924V0.5H66.6924ZM69.3924 0.5V14H71.3924V0.5H69.3924ZM70.3924 13H66.6924V15H70.3924V13ZM67.6924 14V9.1H65.6924V14H67.6924ZM66.6924 8.1H57.1424V10.1H66.6924V8.1ZM56.1424 9.1V14H58.1424V9.1H56.1424ZM57.1424 13H53.4424V15H57.1424V13ZM54.4424 14V0.5H52.4424V14H54.4424ZM53.4424 1.5H57.1424V-0.5H53.4424V1.5ZM56.1424 0.5V5.675H58.1424V0.5H56.1424ZM57.1424 6.675H66.6924V4.675H57.1424V6.675ZM67.6924 5.675V0.5H65.6924V5.675H67.6924ZM66.6924 1.5H70.3924V-0.5H66.6924V1.5ZM90.4059 14V15H92.8201L91.113 13.2929L90.4059 14ZM85.1809 14L84.4738 14.7071L84.7666 15H85.1809V14ZM80.2059 9.025L80.913 8.31789L80.1986 7.60357L79.4916 8.32511L80.2059 9.025ZM75.3309 14V15H75.751L76.0451 14.6999L75.3309 14ZM71.6309 14H70.6309V15H71.6309V14ZM71.6309 0.5V-0.5H70.6309V0.5H71.6309ZM75.3309 0.5H76.3309V-0.5H75.3309V0.5ZM75.3309 8.7H74.3309V11.1407L76.0434 9.40166L75.3309 8.7ZM83.4059 0.5V-0.5H82.9871L82.6933 -0.201656L83.4059 0.5ZM88.5559 0.5L89.269 1.20101L90.9411 -0.5H88.5559V0.5ZM82.7809 6.375L82.0677 5.67399L81.3727 6.38104L82.0738 7.08211L82.7809 6.375ZM90.4059 13H85.1809V15H90.4059V13ZM85.888 13.2929L80.913 8.31789L79.4988 9.73211L84.4738 14.7071L85.888 13.2929ZM79.4916 8.32511L74.6166 13.3001L76.0451 14.6999L80.9201 9.72489L79.4916 8.32511ZM75.3309 13H71.6309V15H75.3309V13ZM72.6309 14V0.5H70.6309V14H72.6309ZM71.6309 1.5H75.3309V-0.5H71.6309V1.5ZM74.3309 0.5V8.7H76.3309V0.5H74.3309ZM76.0434 9.40166L84.1184 1.20165L82.6933 -0.201656L74.6183 7.99834L76.0434 9.40166ZM83.4059 1.5H88.5559V-0.5H83.4059V1.5ZM87.8427 -0.201012L82.0677 5.67399L83.494 7.07601L89.269 1.20101L87.8427 -0.201012ZM82.0738 7.08211L89.6988 14.7071L91.113 13.2929L83.488 5.66789L82.0738 7.08211ZM108.518 14V15H110.932L109.225 13.2929L108.518 14ZM103.518 14L102.811 14.7071L103.104 15H103.518V14ZM98.493 8.975L99.2001 8.26789L98.9072 7.975H98.493V8.975ZM94.618 8.975V7.975H93.618V8.975H94.618ZM94.618 14V15H95.618V14H94.618ZM90.918 14H89.918V15H90.918V14ZM90.918 0.5V-0.5H89.918V0.5H90.918ZM103.493 8.975V7.975H101.079L102.786 9.68211L103.493 8.975ZM94.618 3.9V2.9H93.618V3.9H94.618ZM94.618 5.55H93.618V6.55H94.618V5.55ZM108.518 13H103.518V15H108.518V13ZM104.225 13.2929L99.2001 8.26789L97.7859 9.68211L102.811 14.7071L104.225 13.2929ZM98.493 7.975H94.618V9.975H98.493V7.975ZM93.618 8.975V14H95.618V8.975H93.618ZM94.618 13H90.918V15H94.618V13ZM91.918 14V0.5H89.918V14H91.918ZM90.918 1.5H103.618V-0.5H90.918V1.5ZM103.618 1.5C105.42 1.5 106.868 2.95612 106.868 4.725H108.868C108.868 1.84388 106.516 -0.5 103.618 -0.5V1.5ZM106.868 4.725C106.868 6.52272 105.416 7.975 103.618 7.975V9.975C106.52 9.975 108.868 7.62728 108.868 4.725H106.868ZM103.618 7.975H103.493V9.975H103.618V7.975ZM102.786 9.68211L107.811 14.7071L109.225 13.2929L104.2 8.26789L102.786 9.68211ZM93.618 3.9V5.55H95.618V3.9H93.618ZM94.618 6.55H103.343V4.55H94.618V6.55ZM103.343 6.55C104.345 6.55 105.168 5.72729 105.168 4.725H103.168C103.168 4.66745 103.192 4.62405 103.217 4.59914C103.242 4.57423 103.285 4.55 103.343 4.55V6.55ZM105.168 4.725C105.168 3.72271 104.345 2.9 103.343 2.9V4.9C103.285 4.9 103.242 4.87577 103.217 4.85086C103.192 4.82594 103.168 4.78255 103.168 4.725H105.168ZM103.343 2.9H94.618V4.9H103.343V2.9ZM109.009 14H108.009V15H109.009V14ZM109.009 0.5V-0.5H108.009V0.5H109.009ZM112.709 0.5H113.709V-0.5H112.709V0.5ZM112.709 14V15H113.709V14H112.709ZM110.009 14V0.5H108.009V14H110.009ZM109.009 1.5H112.709V-0.5H109.009V1.5ZM111.709 0.5V14H113.709V0.5H111.709ZM112.709 13H109.009V15H112.709V13ZM134.183 0.5L134.89 1.20711L136.597 -0.5H134.183V0.5ZM125.658 9.025L124.951 8.31789L124.658 8.61079V9.025H125.658ZM125.658 14V15H126.658V14H125.658ZM121.733 14H120.733V15H121.733V14ZM121.733 9.025H122.733V8.61079L122.44 8.31789L121.733 9.025ZM113.208 0.5V-0.5H110.794L112.501 1.20711L113.208 0.5ZM118.433 0.5L119.138 -0.208785L118.846 -0.5H118.433V0.5ZM123.708 5.75L123.003 6.45878L123.71 7.16254L124.415 6.45711L123.708 5.75ZM128.958 0.5V-0.5H128.544L128.251 -0.207108L128.958 0.5ZM133.476 -0.207108L124.951 8.31789L126.365 9.73211L134.89 1.20711L133.476 -0.207108ZM124.658 9.025V14H126.658V9.025H124.658ZM125.658 13H121.733V15H125.658V13ZM122.733 14V9.025H120.733V14H122.733ZM122.44 8.31789L113.915 -0.207108L112.501 1.20711L121.026 9.73211L122.44 8.31789ZM113.208 1.5H118.433V-0.5H113.208V1.5ZM117.728 1.20878L123.003 6.45878L124.413 5.04121L119.138 -0.208785L117.728 1.20878ZM124.415 6.45711L129.665 1.20711L128.251 -0.207108L123.001 5.04289L124.415 6.45711ZM128.958 1.5H134.183V-0.5H128.958V1.5ZM144.962 14L144.105 14.5163L144.397 15H144.962V14ZM143.937 12.3L144.793 11.7837L144.501 11.3H143.937V12.3ZM134.037 12.3V11.3H133.472L133.18 11.7837L134.037 12.3ZM133.012 14V15H133.576L133.868 14.5163L133.012 14ZM128.687 14L127.83 13.4843L126.918 15H128.687V14ZM136.812 0.5V-0.5H136.246L135.955 -0.0156627L136.812 0.5ZM141.137 0.5L141.993 -0.0156627L141.702 -0.5H141.137V0.5ZM149.262 14V15H151.031L150.118 13.4843L149.262 14ZM136.087 8.9L135.229 8.38485L134.319 9.9H136.087V8.9ZM141.887 8.9V9.9H143.654L142.744 8.38485L141.887 8.9ZM138.987 4.075L139.844 3.55985L138.987 2.13381L138.129 3.55985L138.987 4.075ZM145.818 13.4837L144.793 11.7837L143.08 12.8163L144.105 14.5163L145.818 13.4837ZM143.937 11.3H134.037V13.3H143.937V11.3ZM133.18 11.7837L132.155 13.4837L133.868 14.5163L134.893 12.8163L133.18 11.7837ZM133.012 13H128.687V15H133.012V13ZM129.543 14.5157L137.668 1.01566L135.955 -0.0156627L127.83 13.4843L129.543 14.5157ZM136.812 1.5H141.137V-0.5H136.812V1.5ZM140.28 1.01566L148.405 14.5157L150.118 13.4843L141.993 -0.0156627L140.28 1.01566ZM149.262 13H144.962V15H149.262V13ZM136.087 9.9H141.887V7.9H136.087V9.9ZM142.744 8.38485L139.844 3.55985L138.129 4.59015L141.029 9.41515L142.744 8.38485ZM138.129 3.55985L135.229 8.38485L136.944 9.41515L139.844 4.59015L138.129 3.55985Z" fill="black" mask="url(#path-1-outside-1_6084_320)"/>
</svg>
