<svg width="295" height="62" viewBox="0 0 295 62" fill="none" xmlns="http://www.w3.org/2000/svg">
<path d="M33.12 0.719999L22.752 18H18.272L16.576 15.152L14.848 18H10.368L0 0.719999H5.504L12.608 12.528L13.792 10.576L7.904 0.719999H13.408L16.576 5.968L19.712 0.719999H25.216L19.328 10.544L20.512 12.528L27.616 0.719999H33.12ZM33.75 0.719999H38.486V18H33.75V0.719999ZM62.9098 5.072H53.8538V18H49.1178V5.072H40.0938V0.719999H62.9098V5.072ZM86.196 18H81.46V11.728H69.236V18H64.5V0.719999H69.236V7.344H81.46V0.719999H86.196V18ZM116.613 13.648V18H95.7812V0.719999H100.517V13.648H116.613ZM134.05 0.719999C135.01 0.719999 135.906 0.901333 136.738 1.264C137.57 1.62667 138.295 2.128 138.914 2.768C139.554 3.38667 140.055 4.112 140.418 4.944C140.781 5.776 140.962 6.672 140.962 7.632L140.93 11.12C140.93 12.08 140.749 12.976 140.386 13.808C140.023 14.64 139.533 15.3653 138.914 15.984C138.295 16.6027 137.57 17.0933 136.738 17.456C135.906 17.8187 135.01 18 134.05 18H124.162C123.202 18 122.306 17.8187 121.474 17.456C120.642 17.0933 119.906 16.6027 119.266 15.984C118.647 15.3653 118.157 14.64 117.794 13.808C117.431 12.976 117.25 12.08 117.25 11.12L117.282 7.6C117.282 6.64 117.463 5.744 117.826 4.912C118.189 4.08 118.679 3.35467 119.298 2.736C119.917 2.11733 120.642 1.62667 121.474 1.264C122.306 0.901333 123.202 0.719999 124.162 0.719999H134.05ZM136.194 7.248C136.194 6.65067 135.981 6.14933 135.554 5.744C135.149 5.31733 134.647 5.104 134.05 5.104H124.162C123.565 5.104 123.053 5.31733 122.626 5.744C122.199 6.14933 121.986 6.65067 121.986 7.248V11.504C121.986 12.1013 122.199 12.6133 122.626 13.04C123.053 13.4453 123.565 13.648 124.162 13.648H134.05C134.647 13.648 135.149 13.4453 135.554 13.04C135.981 12.6133 136.194 12.1013 136.194 11.504V7.248ZM165.497 0.719999L155.129 18H150.649L140.312 0.719999H145.817L152.921 12.528L159.993 0.719999H165.497ZM170.861 5.072V7.184H181.933V11.536H170.861V13.648H186.221V18H166.125V0.719999H186.221V5.072H170.861ZM187.044 18.736C187.258 18.736 187.439 18.6613 187.588 18.512C187.738 18.3627 187.812 18.1707 187.812 17.936V13.648H192.549V17.936C192.549 18.704 192.399 19.4187 192.101 20.08C191.823 20.7413 191.429 21.3173 190.917 21.808C190.426 22.32 189.85 22.7147 189.189 22.992C188.527 23.2907 187.812 23.44 187.044 23.44V18.736ZM0.928 39.4H17.344V43.176H11.04V61H7.232V43.176H0.928V39.4ZM27.3373 39.4H38.1533V43.176H27.3373C25.0653 43.176 24.0733 44.232 24.0733 45.896C24.0733 47.656 25.1933 48.456 27.3693 48.456H37.9933V51.88H27.2733C25.0973 51.88 23.9773 52.744 23.9773 54.504C23.9773 56.2 25.0333 57.224 27.2413 57.224H38.1853V61H27.2413C22.1213 61 20.0413 58.472 20.0413 55.112C20.0413 52.648 21.1613 50.984 23.1453 50.152C21.1293 49.32 20.1053 47.656 20.1053 45.288C20.1053 41.832 22.2493 39.4 27.3373 39.4ZM52.0848 43.624L45.2368 61H41.0768L48.6608 41.8C49.4608 39.784 50.9328 39.016 53.2048 39.016C55.4448 39.016 56.9167 39.784 57.6848 41.8L64.9808 61H60.7888L54.2288 43.624C54.0368 43.112 53.6848 42.888 53.1728 42.888C52.6608 42.888 52.3088 43.112 52.0848 43.624ZM71.9305 43.912V61H68.1545V43.72C68.1545 40.904 69.7225 39.016 72.9545 39.016C75.8345 39.016 77.2105 40.552 78.0105 43.016L83.2585 56.808C83.4825 57.352 83.8985 57.704 84.4745 57.704C85.1145 57.704 85.5945 57.224 85.5945 56.488V43.72C85.5945 40.904 87.1625 39.016 90.3625 39.016C93.2425 39.016 94.6185 40.552 95.4825 43.016L102.171 61H98.1065L91.6745 43.592C91.4505 43.048 91.0345 42.664 90.4585 42.664C89.8185 42.664 89.3705 43.144 89.3705 43.912V56.648C89.3705 59.496 87.7385 61.384 84.5705 61.384C81.7225 61.384 80.3145 59.848 79.4825 57.384L74.2345 43.592C74.0105 43.048 73.5945 42.664 73.0505 42.664C72.3785 42.664 71.9305 43.144 71.9305 43.912ZM111.709 39.4H128.125V43.176H121.821V61H118.013V43.176H111.709V39.4ZM138.119 39.4H148.935V43.176H138.119C135.847 43.176 134.855 44.232 134.855 45.896C134.855 47.656 135.975 48.456 138.151 48.456H148.775V51.88H138.055C135.879 51.88 134.759 52.744 134.759 54.504C134.759 56.2 135.815 57.224 138.023 57.224H148.967V61H138.023C132.903 61 130.823 58.472 130.823 55.112C130.823 52.648 131.943 50.984 133.927 50.152C131.911 49.32 130.887 47.656 130.887 45.288C130.887 41.832 133.031 39.4 138.119 39.4ZM162.834 39.4H171.186V43.176H162.834C158.674 43.176 156.85 45.256 156.85 50.216C156.85 55.144 158.642 57.224 162.834 57.224H171.186V61H162.834C156.53 61 153.074 57.448 153.074 50.216C153.074 42.952 156.562 39.4 162.834 39.4ZM175.687 39.4H179.463V48.2H190.503V39.4H194.311V61H190.503V51.976H179.463V61H175.687V39.4ZM199.53 39.4H203.306V48.552H205.386C209.098 48.552 209.706 48.232 210.922 45.864L214.218 39.4H218.282L214.89 46.12C213.93 48.04 212.906 49.288 211.146 50.056C213.162 50.6 214.154 51.72 215.434 54.216L218.922 61H214.698L211.402 54.6C210.218 52.296 209.45 51.976 205.386 51.976H203.306V61H199.53V39.4ZM222.123 39.4H233.835C238.699 39.4 240.779 42.408 240.779 45.864C240.779 48.552 239.499 51.432 236.203 52.36L241.227 61H237.035L232.107 52.648H226.475C226.123 52.648 225.931 52.808 225.931 53.192V61H222.155V52.456C222.155 50.024 223.179 49.032 225.547 49.032H233.963C236.107 49.032 236.971 47.56 236.971 46.024C236.971 44.488 236.043 43.176 233.963 43.176H222.123V39.4ZM245.03 39.4H248.806V61H245.03V39.4ZM251.822 39.4H256.398L262.446 48.648L268.558 39.4H273.038L264.334 51.688V61H260.526V51.688L251.822 39.4ZM281.96 43.624L275.112 61H270.952L278.536 41.8C279.336 39.784 280.808 39.016 283.08 39.016C285.32 39.016 286.792 39.784 287.56 41.8L294.856 61H290.664L284.104 43.624C283.912 43.112 283.56 42.888 283.048 42.888C282.536 42.888 282.184 43.112 281.96 43.624Z" fill="#ABABAB"/>
</svg>
