<svg width="235" height="50" viewBox="0 0 235 50" fill="none" xmlns="http://www.w3.org/2000/svg">
<rect width="235" height="50" rx="8" fill="#F7F9FC"/>
<path d="M33.42 27.28V30H31.28C28.92 30 27 28.06 27 25.7V19.2H29.96V25.94C29.96 26.68 30.56 27.28 31.3 27.28H33.42ZM38.22 19.2H41.16V25.7C41.16 28.08 39.24 30 36.86 30H34.74V27.28H36.86C37.6 27.28 38.22 26.68 38.22 25.94V19.2ZM42.1562 19.2H52.3163C54.1763 19.2 55.6963 20.72 55.6963 22.58C55.6963 24.46 54.1763 25.98 52.3163 25.98H45.1163V30H42.1562V19.2ZM52.0763 23.24C52.4563 23.24 52.7363 22.94 52.7363 22.58C52.7363 22.22 52.4563 21.92 52.0763 21.92H45.1163V23.24H52.0763ZM66.8922 19.2C68.7922 19.2 70.3322 20.74 70.3322 22.64V26.56C70.3322 28.46 68.7922 30 66.8922 30H56.4922V19.2H66.8922ZM67.3722 26.38V22.82C67.3722 22.34 66.9722 21.94 66.4722 21.94H59.4522V27.28H66.4722C66.9722 27.28 67.3722 26.88 67.3722 26.38ZM83.3598 30L82.5398 28.64H74.6198L73.7998 30H70.3398L76.8398 19.2H80.2998L86.7998 30H83.3598ZM76.2598 25.92H80.8998L78.5798 22.06L76.2598 25.92ZM97.8616 19.2V21.92H92.2016V30H89.2416V21.92H83.6016V19.2H97.8616ZM111.415 21.92H101.815V23.24H108.735V25.96H101.815V27.28H111.415V30H98.8555V19.2H111.415V21.92ZM117.41 19.2H127.57C129.43 19.2 130.95 20.72 130.95 22.58C130.95 24.46 129.43 25.98 127.57 25.98H120.37V30H117.41V19.2ZM127.33 23.24C127.71 23.24 127.99 22.94 127.99 22.58C127.99 22.22 127.71 21.92 127.33 21.92H120.37V23.24H127.33ZM145.826 30H141.826L137.806 25.98H134.706V30H131.746V19.2H141.906C143.786 19.2 145.306 20.72 145.306 22.58C145.306 24.46 143.786 25.98 141.906 25.98H141.806L145.826 30ZM134.706 21.92V23.24H141.686C142.046 23.24 142.346 22.94 142.346 22.58C142.346 22.22 142.046 21.92 141.686 21.92H134.706ZM156.719 19.2C159.099 19.2 161.039 21.14 161.039 23.52L161.019 25.7C161.019 28.08 159.099 30 156.719 30H150.539C148.159 30 146.219 28.08 146.219 25.7L146.239 23.5C146.239 21.12 148.159 19.2 150.539 19.2H156.719ZM158.059 25.94V23.28C158.059 22.54 157.459 21.94 156.719 21.94H150.539C149.799 21.94 149.179 22.54 149.179 23.28V25.94C149.179 26.68 149.799 27.28 150.539 27.28H156.719C157.459 27.28 158.059 26.68 158.059 25.94ZM174.599 21.92H164.999V23.24H171.919V25.96H164.999V30H162.039V19.2H174.599V21.92ZM175.594 30V19.2H178.554V30H175.594ZM182.519 27.28H192.579V30H179.559V19.2H182.519V27.28ZM206.142 21.92H196.542V23.24H203.462V25.96H196.542V27.28H206.142V30H193.582V19.2H206.142V21.92Z" fill="#1E1E1E"/>
</svg>
