<svg width="310" height="42" viewBox="0 0 310 42" fill="none" xmlns="http://www.w3.org/2000/svg">
<path d="M11.072 0.799999V12H10.4L2.768 2.272V12H1.952V0.799999H2.64L10.256 10.528V0.799999H11.072ZM15.6233 0.799999H16.4393V12H15.6233V0.799999ZM23.126 1.536H19.094V0.799999H27.974V1.536H23.942V12H23.126V1.536ZM42.315 8.848H35.819L34.395 12H33.515L38.667 0.799999H39.483L44.635 12H43.755L42.315 8.848ZM42.011 8.16L39.067 1.696L36.139 8.16H42.011ZM51.1323 3.584C52.1776 3.584 53.0043 3.888 53.6123 4.496C54.2203 5.104 54.5243 5.97867 54.5243 7.12V12H53.7243V7.184C53.7243 6.24533 53.4843 5.53067 53.0043 5.04C52.5349 4.54933 51.8736 4.304 51.0203 4.304C50.0389 4.304 49.2656 4.59733 48.7003 5.184C48.1349 5.77067 47.8523 6.56 47.8523 7.552V12H47.0523V3.648H47.8203V5.456C48.1083 4.86933 48.5349 4.41067 49.1003 4.08C49.6763 3.74933 50.3536 3.584 51.1323 3.584ZM65.8975 0.127999V12H65.1135V10.032C64.7828 10.6827 64.3188 11.184 63.7215 11.536C63.1242 11.888 62.4468 12.064 61.6895 12.064C60.9108 12.064 60.2068 11.8827 59.5775 11.52C58.9482 11.1573 58.4522 10.656 58.0895 10.016C57.7375 9.376 57.5615 8.64533 57.5615 7.824C57.5615 7.00267 57.7375 6.272 58.0895 5.632C58.4522 4.98133 58.9482 4.48 59.5775 4.128C60.2068 3.76533 60.9108 3.584 61.6895 3.584C62.4362 3.584 63.1028 3.76 63.6895 4.112C64.2868 4.464 64.7562 4.95467 65.0975 5.584V0.127999H65.8975ZM61.7375 11.344C62.3775 11.344 62.9482 11.1947 63.4495 10.896C63.9615 10.5973 64.3615 10.1813 64.6495 9.648C64.9482 9.11467 65.0975 8.50667 65.0975 7.824C65.0975 7.14133 64.9482 6.53333 64.6495 6C64.3615 5.46667 63.9615 5.05067 63.4495 4.752C62.9482 4.45333 62.3775 4.304 61.7375 4.304C61.0975 4.304 60.5215 4.45333 60.0095 4.752C59.5082 5.05067 59.1082 5.46667 58.8095 6C58.5215 6.53333 58.3775 7.14133 58.3775 7.824C58.3775 8.50667 58.5215 9.11467 58.8095 9.648C59.1082 10.1813 59.5082 10.5973 60.0095 10.896C60.5215 11.1947 61.0975 11.344 61.7375 11.344ZM73.9904 3.584C75.0357 3.584 75.8624 3.888 76.4704 4.496C77.0784 5.104 77.3824 5.97867 77.3824 7.12V12H76.5824V7.184C76.5824 6.24533 76.3424 5.53067 75.8624 5.04C75.393 4.54933 74.7317 4.304 73.8784 4.304C72.897 4.304 72.1237 4.59733 71.5584 5.184C70.993 5.77067 70.7104 6.56 70.7104 7.552V12H69.9104V0.127999H70.7104V5.392C70.9984 4.816 71.425 4.37333 71.9904 4.064C72.5557 3.744 73.2224 3.584 73.9904 3.584ZM82.084 5.472C82.34 4.864 82.74 4.4 83.284 4.08C83.828 3.74933 84.4893 3.584 85.268 3.584V4.368L85.076 4.352C84.148 4.352 83.4227 4.64533 82.9 5.232C82.3773 5.808 82.116 6.61333 82.116 7.648V12H81.316V3.648H82.084V5.472ZM90.9283 3.584C91.9629 3.584 92.7576 3.85067 93.3123 4.384C93.8669 4.90667 94.1443 5.68 94.1443 6.704V12H93.3763V10.512C93.1096 11.0027 92.7203 11.3867 92.2083 11.664C91.6963 11.9307 91.0829 12.064 90.3683 12.064C89.4403 12.064 88.7043 11.8453 88.1603 11.408C87.6269 10.9707 87.3603 10.3947 87.3603 9.68C87.3603 8.98667 87.6056 8.42667 88.0963 8C88.5976 7.56267 89.3923 7.344 90.4803 7.344H93.3443V6.672C93.3443 5.89333 93.1309 5.30133 92.7043 4.896C92.2883 4.49067 91.6749 4.288 90.8643 4.288C90.3096 4.288 89.7763 4.384 89.2643 4.576C88.7629 4.768 88.3363 5.024 87.9843 5.344L87.5843 4.768C88.0003 4.39467 88.5016 4.10667 89.0883 3.904C89.6749 3.69067 90.2883 3.584 90.9283 3.584ZM90.4803 11.408C91.1736 11.408 91.7603 11.248 92.2403 10.928C92.7309 10.608 93.0989 10.144 93.3443 9.536V7.968H90.4963C89.6749 7.968 89.0776 8.11733 88.7043 8.416C88.3416 8.71467 88.1603 9.12533 88.1603 9.648C88.1603 10.192 88.3629 10.624 88.7683 10.944C89.1736 11.2533 89.7443 11.408 90.4803 11.408ZM102.83 3.648H103.63V12H102.83V3.648ZM103.23 1.616C103.048 1.616 102.894 1.55733 102.766 1.44C102.638 1.312 102.574 1.15733 102.574 0.976C102.574 0.794666 102.638 0.639999 102.766 0.511999C102.894 0.384 103.048 0.32 103.23 0.32C103.411 0.32 103.566 0.384 103.694 0.511999C103.822 0.629333 103.886 0.778666 103.886 0.959999C103.886 1.14133 103.822 1.296 103.694 1.424C103.566 1.552 103.411 1.616 103.23 1.616ZM111.722 3.584C112.767 3.584 113.594 3.888 114.202 4.496C114.81 5.104 115.114 5.97867 115.114 7.12V12H114.314V7.184C114.314 6.24533 114.074 5.53067 113.594 5.04C113.124 4.54933 112.463 4.304 111.61 4.304C110.628 4.304 109.855 4.59733 109.29 5.184C108.724 5.77067 108.442 6.56 108.442 7.552V12H107.642V3.648H108.41V5.456C108.698 4.86933 109.124 4.41067 109.69 4.08C110.266 3.74933 110.943 3.584 111.722 3.584ZM125.595 3.648L121.819 12H121.003L117.243 3.648H118.091L121.419 11.12L124.779 3.648H125.595ZM127.984 3.648H128.784V12H127.984V3.648ZM128.384 1.616C128.203 1.616 128.048 1.55733 127.92 1.44C127.792 1.312 127.728 1.15733 127.728 0.976C127.728 0.794666 127.792 0.639999 127.92 0.511999C128.048 0.384 128.203 0.32 128.384 0.32C128.565 0.32 128.72 0.384 128.848 0.511999C128.976 0.629333 129.04 0.778666 129.04 0.959999C129.04 1.14133 128.976 1.296 128.848 1.424C128.72 1.552 128.565 1.616 128.384 1.616ZM136.94 11.472C136.737 11.664 136.481 11.8133 136.172 11.92C135.873 12.016 135.559 12.064 135.228 12.064C134.503 12.064 133.943 11.8667 133.548 11.472C133.153 11.0667 132.956 10.5067 132.956 9.792V4.336H131.42V3.648H132.956V1.824H133.756V3.648H136.412V4.336H133.756V9.712C133.756 10.256 133.884 10.672 134.14 10.96C134.407 11.2373 134.796 11.376 135.308 11.376C135.831 11.376 136.263 11.2213 136.604 10.912L136.94 11.472ZM146.57 8.016H139.386C139.407 8.66667 139.573 9.248 139.882 9.76C140.191 10.2613 140.607 10.6507 141.13 10.928C141.663 11.2053 142.261 11.344 142.922 11.344C143.466 11.344 143.967 11.248 144.426 11.056C144.895 10.8533 145.285 10.56 145.594 10.176L146.058 10.704C145.695 11.1413 145.237 11.4773 144.682 11.712C144.138 11.9467 143.546 12.064 142.906 12.064C142.074 12.064 141.333 11.8827 140.682 11.52C140.031 11.1573 139.519 10.656 139.146 10.016C138.783 9.376 138.602 8.64533 138.602 7.824C138.602 7.01333 138.773 6.288 139.114 5.648C139.466 4.99733 139.946 4.49067 140.554 4.128C141.162 3.76533 141.845 3.584 142.602 3.584C143.359 3.584 144.037 3.76533 144.634 4.128C145.242 4.48 145.717 4.976 146.058 5.616C146.41 6.256 146.586 6.98133 146.586 7.792L146.57 8.016ZM142.602 4.288C142.015 4.288 141.487 4.42133 141.018 4.688C140.549 4.944 140.17 5.312 139.882 5.792C139.605 6.26133 139.445 6.79467 139.402 7.392H145.802C145.77 6.79467 145.61 6.26133 145.322 5.792C145.034 5.32267 144.655 4.95467 144.186 4.688C143.717 4.42133 143.189 4.288 142.602 4.288ZM151.813 12.064C151.141 12.064 150.501 11.9627 149.893 11.76C149.285 11.5573 148.81 11.3013 148.469 10.992L148.837 10.352C149.178 10.64 149.616 10.88 150.149 11.072C150.693 11.264 151.258 11.36 151.845 11.36C152.688 11.36 153.306 11.2213 153.701 10.944C154.106 10.6667 154.309 10.2827 154.309 9.792C154.309 9.44 154.197 9.16267 153.973 8.96C153.76 8.75733 153.493 8.608 153.173 8.512C152.853 8.416 152.41 8.31467 151.845 8.208C151.184 8.09067 150.65 7.96267 150.245 7.824C149.84 7.68533 149.493 7.46133 149.205 7.152C148.917 6.84267 148.773 6.416 148.773 5.872C148.773 5.21067 149.045 4.66667 149.589 4.24C150.144 3.80267 150.928 3.584 151.941 3.584C152.474 3.584 153.002 3.65867 153.525 3.808C154.048 3.95733 154.474 4.15467 154.805 4.4L154.437 5.04C154.096 4.79467 153.706 4.608 153.269 4.48C152.832 4.352 152.384 4.288 151.925 4.288C151.146 4.288 150.56 4.432 150.165 4.72C149.77 5.008 149.573 5.38667 149.573 5.856C149.573 6.22933 149.685 6.52267 149.909 6.736C150.133 6.93867 150.405 7.09333 150.725 7.2C151.056 7.296 151.514 7.40267 152.101 7.52C152.752 7.63733 153.274 7.76533 153.669 7.904C154.074 8.032 154.416 8.24533 154.693 8.544C154.97 8.84267 155.109 9.25333 155.109 9.776C155.109 10.4693 154.821 11.024 154.245 11.44C153.669 11.856 152.858 12.064 151.813 12.064ZM169.435 3.648L165.147 13.136C164.827 13.872 164.454 14.3947 164.027 14.704C163.611 15.0133 163.115 15.168 162.539 15.168C162.155 15.168 161.792 15.104 161.451 14.976C161.12 14.848 160.838 14.6613 160.603 14.416L161.003 13.808C161.43 14.2453 161.947 14.464 162.555 14.464C162.96 14.464 163.307 14.352 163.595 14.128C163.883 13.904 164.15 13.52 164.395 12.976L164.843 11.968L161.083 3.648H161.931L165.275 11.12L168.619 3.648H169.435ZM174.854 12.064C174.064 12.064 173.35 11.8827 172.71 11.52C172.08 11.1573 171.584 10.656 171.222 10.016C170.859 9.36533 170.678 8.63467 170.678 7.824C170.678 7.01333 170.859 6.288 171.222 5.648C171.584 4.99733 172.08 4.49067 172.71 4.128C173.35 3.76533 174.064 3.584 174.854 3.584C175.643 3.584 176.352 3.76533 176.982 4.128C177.622 4.49067 178.123 4.99733 178.486 5.648C178.848 6.288 179.03 7.01333 179.03 7.824C179.03 8.63467 178.848 9.36533 178.486 10.016C178.123 10.656 177.622 11.1573 176.982 11.52C176.352 11.8827 175.643 12.064 174.854 12.064ZM174.854 11.344C175.494 11.344 176.064 11.1947 176.566 10.896C177.078 10.5973 177.478 10.1813 177.766 9.648C178.064 9.11467 178.214 8.50667 178.214 7.824C178.214 7.14133 178.064 6.53333 177.766 6C177.478 5.46667 177.078 5.05067 176.566 4.752C176.064 4.45333 175.494 4.304 174.854 4.304C174.214 4.304 173.638 4.45333 173.126 4.752C172.624 5.05067 172.224 5.46667 171.926 6C171.638 6.53333 171.494 7.14133 171.494 7.824C171.494 8.50667 171.638 9.11467 171.926 9.648C172.224 10.1813 172.624 10.5973 173.126 10.896C173.638 11.1947 174.214 11.344 174.854 11.344ZM189.464 3.648V12H188.696V10.208C188.418 10.7947 188.008 11.2533 187.464 11.584C186.92 11.904 186.28 12.064 185.544 12.064C184.456 12.064 183.602 11.76 182.984 11.152C182.365 10.544 182.056 9.66933 182.056 8.528V3.648H182.856V8.464C182.856 9.40267 183.096 10.1173 183.576 10.608C184.056 11.0987 184.733 11.344 185.608 11.344C186.546 11.344 187.288 11.0507 187.832 10.464C188.386 9.87733 188.664 9.088 188.664 8.096V3.648H189.464ZM202.388 11.472C202.185 11.664 201.929 11.8133 201.62 11.92C201.321 12.016 201.007 12.064 200.676 12.064C199.951 12.064 199.391 11.8667 198.996 11.472C198.601 11.0667 198.404 10.5067 198.404 9.792V4.336H196.868V3.648H198.404V1.824H199.204V3.648H201.86V4.336H199.204V9.712C199.204 10.256 199.332 10.672 199.588 10.96C199.855 11.2373 200.244 11.376 200.756 11.376C201.279 11.376 201.711 11.2213 202.052 10.912L202.388 11.472ZM208.226 12.064C207.437 12.064 206.722 11.8827 206.082 11.52C205.453 11.1573 204.957 10.656 204.594 10.016C204.232 9.36533 204.05 8.63467 204.05 7.824C204.05 7.01333 204.232 6.288 204.594 5.648C204.957 4.99733 205.453 4.49067 206.082 4.128C206.722 3.76533 207.437 3.584 208.226 3.584C209.016 3.584 209.725 3.76533 210.354 4.128C210.994 4.49067 211.496 4.99733 211.858 5.648C212.221 6.288 212.402 7.01333 212.402 7.824C212.402 8.63467 212.221 9.36533 211.858 10.016C211.496 10.656 210.994 11.1573 210.354 11.52C209.725 11.8827 209.016 12.064 208.226 12.064ZM208.226 11.344C208.866 11.344 209.437 11.1947 209.938 10.896C210.45 10.5973 210.85 10.1813 211.138 9.648C211.437 9.11467 211.586 8.50667 211.586 7.824C211.586 7.14133 211.437 6.53333 211.138 6C210.85 5.46667 210.45 5.05067 209.938 4.752C209.437 4.45333 208.866 4.304 208.226 4.304C207.586 4.304 207.01 4.45333 206.498 4.752C205.997 5.05067 205.597 5.46667 205.298 6C205.01 6.53333 204.866 7.14133 204.866 7.824C204.866 8.50667 205.01 9.11467 205.298 9.648C205.597 10.1813 205.997 10.5973 206.498 10.896C207.01 11.1947 207.586 11.344 208.226 11.344ZM220.273 3.648H221.073V12H220.273V3.648ZM220.673 1.616C220.492 1.616 220.337 1.55733 220.209 1.44C220.081 1.312 220.017 1.15733 220.017 0.976C220.017 0.794666 220.081 0.639999 220.209 0.511999C220.337 0.384 220.492 0.32 220.673 0.32C220.855 0.32 221.009 0.384 221.137 0.511999C221.265 0.629333 221.329 0.778666 221.329 0.959999C221.329 1.14133 221.265 1.296 221.137 1.424C221.009 1.552 220.855 1.616 220.673 1.616ZM229.229 11.472C229.027 11.664 228.771 11.8133 228.461 11.92C228.163 12.016 227.848 12.064 227.517 12.064C226.792 12.064 226.232 11.8667 225.837 11.472C225.443 11.0667 225.245 10.5067 225.245 9.792V4.336H223.709V3.648H225.245V1.824H226.045V3.648H228.701V4.336H226.045V9.712C226.045 10.256 226.173 10.672 226.429 10.96C226.696 11.2373 227.085 11.376 227.597 11.376C228.12 11.376 228.552 11.2213 228.893 10.912L229.229 11.472ZM232.004 0.0639992C232.196 0.0639992 232.356 0.133333 232.484 0.271999C232.612 0.4 232.676 0.554666 232.676 0.735999C232.676 0.842666 232.66 0.954666 232.628 1.072C232.607 1.18933 232.575 1.32267 232.532 1.472L231.908 3.648H231.332L231.86 1.392C231.7 1.34933 231.572 1.27467 231.476 1.168C231.38 1.05067 231.332 0.906666 231.332 0.735999C231.332 0.543999 231.396 0.383999 231.524 0.256C231.652 0.127999 231.812 0.0639992 232.004 0.0639992ZM237.805 12.064C237.133 12.064 236.493 11.9627 235.885 11.76C235.277 11.5573 234.803 11.3013 234.461 10.992L234.829 10.352C235.171 10.64 235.608 10.88 236.141 11.072C236.685 11.264 237.251 11.36 237.837 11.36C238.68 11.36 239.299 11.2213 239.693 10.944C240.099 10.6667 240.301 10.2827 240.301 9.792C240.301 9.44 240.189 9.16267 239.965 8.96C239.752 8.75733 239.485 8.608 239.165 8.512C238.845 8.416 238.403 8.31467 237.837 8.208C237.176 8.09067 236.643 7.96267 236.237 7.824C235.832 7.68533 235.485 7.46133 235.197 7.152C234.909 6.84267 234.765 6.416 234.765 5.872C234.765 5.21067 235.037 4.66667 235.581 4.24C236.136 3.80267 236.92 3.584 237.933 3.584C238.467 3.584 238.995 3.65867 239.517 3.808C240.04 3.95733 240.467 4.15467 240.797 4.4L240.429 5.04C240.088 4.79467 239.699 4.608 239.261 4.48C238.824 4.352 238.376 4.288 237.917 4.288C237.139 4.288 236.552 4.432 236.157 4.72C235.763 5.008 235.565 5.38667 235.565 5.856C235.565 6.22933 235.677 6.52267 235.901 6.736C236.125 6.93867 236.397 7.09333 236.717 7.2C237.048 7.296 237.507 7.40267 238.093 7.52C238.744 7.63733 239.267 7.76533 239.661 7.904C240.067 8.032 240.408 8.24533 240.685 8.544C240.963 8.84267 241.101 9.25333 241.101 9.776C241.101 10.4693 240.813 11.024 240.237 11.44C239.661 11.856 238.851 12.064 237.805 12.064ZM251.539 3.584C252.574 3.584 253.369 3.85067 253.923 4.384C254.478 4.90667 254.755 5.68 254.755 6.704V12H253.987V10.512C253.721 11.0027 253.331 11.3867 252.819 11.664C252.307 11.9307 251.694 12.064 250.979 12.064C250.051 12.064 249.315 11.8453 248.771 11.408C248.238 10.9707 247.971 10.3947 247.971 9.68C247.971 8.98667 248.217 8.42667 248.707 8C249.209 7.56267 250.003 7.344 251.091 7.344H253.955V6.672C253.955 5.89333 253.742 5.30133 253.315 4.896C252.899 4.49067 252.286 4.288 251.475 4.288C250.921 4.288 250.387 4.384 249.875 4.576C249.374 4.768 248.947 5.024 248.595 5.344L248.195 4.768C248.611 4.39467 249.113 4.10667 249.699 3.904C250.286 3.69067 250.899 3.584 251.539 3.584ZM251.091 11.408C251.785 11.408 252.371 11.248 252.851 10.928C253.342 10.608 253.71 10.144 253.955 9.536V7.968H251.107C250.286 7.968 249.689 8.11733 249.315 8.416C248.953 8.71467 248.771 9.12533 248.771 9.648C248.771 10.192 248.974 10.624 249.379 10.944C249.785 11.2533 250.355 11.408 251.091 11.408ZM262.772 3.584C263.817 3.584 264.644 3.888 265.252 4.496C265.86 5.104 266.164 5.97867 266.164 7.12V12H265.364V7.184C265.364 6.24533 265.124 5.53067 264.644 5.04C264.174 4.54933 263.513 4.304 262.66 4.304C261.678 4.304 260.905 4.59733 260.34 5.184C259.774 5.77067 259.492 6.56 259.492 7.552V12H258.692V3.648H259.46V5.456C259.748 4.86933 260.174 4.41067 260.74 4.08C261.316 3.74933 261.993 3.584 262.772 3.584ZM274.177 3.584C275.223 3.584 276.049 3.888 276.657 4.496C277.265 5.104 277.569 5.97867 277.569 7.12V12H276.769V7.184C276.769 6.24533 276.529 5.53067 276.049 5.04C275.58 4.54933 274.919 4.304 274.065 4.304C273.084 4.304 272.311 4.59733 271.745 5.184C271.18 5.77067 270.897 6.56 270.897 7.552V12H270.097V3.648H270.865V5.456C271.153 4.86933 271.58 4.41067 272.145 4.08C272.721 3.74933 273.399 3.584 274.177 3.584ZM288.815 3.648V12H288.047V10.208C287.77 10.7947 287.359 11.2533 286.815 11.584C286.271 11.904 285.631 12.064 284.895 12.064C283.807 12.064 282.954 11.76 282.335 11.152C281.716 10.544 281.407 9.66933 281.407 8.528V3.648H282.207V8.464C282.207 9.40267 282.447 10.1173 282.927 10.608C283.407 11.0987 284.084 11.344 284.959 11.344C285.898 11.344 286.639 11.0507 287.183 10.464C287.738 9.87733 288.015 9.088 288.015 8.096V3.648H288.815ZM295.662 3.584C296.697 3.584 297.491 3.85067 298.046 4.384C298.601 4.90667 298.878 5.68 298.878 6.704V12H298.11V10.512C297.843 11.0027 297.454 11.3867 296.942 11.664C296.43 11.9307 295.817 12.064 295.102 12.064C294.174 12.064 293.438 11.8453 292.894 11.408C292.361 10.9707 292.094 10.3947 292.094 9.68C292.094 8.98667 292.339 8.42667 292.83 8C293.331 7.56267 294.126 7.344 295.214 7.344H298.078V6.672C298.078 5.89333 297.865 5.30133 297.438 4.896C297.022 4.49067 296.409 4.288 295.598 4.288C295.043 4.288 294.51 4.384 293.998 4.576C293.497 4.768 293.07 5.024 292.718 5.344L292.318 4.768C292.734 4.39467 293.235 4.10667 293.822 3.904C294.409 3.69067 295.022 3.584 295.662 3.584ZM295.214 11.408C295.907 11.408 296.494 11.248 296.974 10.928C297.465 10.608 297.833 10.144 298.078 9.536V7.968H295.23C294.409 7.968 293.811 8.11733 293.438 8.416C293.075 8.71467 292.894 9.12533 292.894 9.648C292.894 10.192 293.097 10.624 293.502 10.944C293.907 11.2533 294.478 11.408 295.214 11.408ZM302.814 0.127999H303.614V12H302.814V0.127999ZM5.84 40.472C5.63733 40.664 5.38133 40.8133 5.072 40.92C4.77333 41.016 4.45867 41.064 4.128 41.064C3.40267 41.064 2.84267 40.8667 2.448 40.472C2.05333 40.0667 1.856 39.5067 1.856 38.792V33.336H0.32V32.648H1.856V30.824H2.656V32.648H5.312V33.336H2.656V38.712C2.656 39.256 2.784 39.672 3.04 39.96C3.30667 40.2373 3.696 40.376 4.208 40.376C4.73067 40.376 5.16267 40.2213 5.504 39.912L5.84 40.472ZM15.4701 37.016H8.28612C8.30746 37.6667 8.47279 38.248 8.78212 38.76C9.09146 39.2613 9.50746 39.6507 10.0301 39.928C10.5635 40.2053 11.1608 40.344 11.8221 40.344C12.3661 40.344 12.8675 40.248 13.3261 40.056C13.7955 39.8533 14.1848 39.56 14.4941 39.176L14.9581 39.704C14.5955 40.1413 14.1368 40.4773 13.5821 40.712C13.0381 40.9467 12.4461 41.064 11.8061 41.064C10.9741 41.064 10.2328 40.8827 9.58212 40.52C8.93146 40.1573 8.41946 39.656 8.04612 39.016C7.68346 38.376 7.50212 37.6453 7.50212 36.824C7.50212 36.0133 7.67279 35.288 8.01412 34.648C8.36612 33.9973 8.84612 33.4907 9.45412 33.128C10.0621 32.7653 10.7448 32.584 11.5021 32.584C12.2595 32.584 12.9368 32.7653 13.5341 33.128C14.1421 33.48 14.6168 33.976 14.9581 34.616C15.3101 35.256 15.4861 35.9813 15.4861 36.792L15.4701 37.016ZM11.5021 33.288C10.9155 33.288 10.3875 33.4213 9.91812 33.688C9.44879 33.944 9.07012 34.312 8.78212 34.792C8.50479 35.2613 8.34479 35.7947 8.30212 36.392H14.7021C14.6701 35.7947 14.5101 35.2613 14.2221 34.792C13.9341 34.3227 13.5555 33.9547 13.0861 33.688C12.6168 33.4213 12.0888 33.288 11.5021 33.288ZM21.913 41.064C21.1023 41.064 20.377 40.8827 19.737 40.52C19.097 40.1573 18.5957 39.656 18.233 39.016C17.8703 38.3653 17.689 37.6347 17.689 36.824C17.689 36.0027 17.8703 35.272 18.233 34.632C18.5957 33.9813 19.097 33.48 19.737 33.128C20.377 32.7653 21.1023 32.584 21.913 32.584C22.585 32.584 23.193 32.7173 23.737 32.984C24.2917 33.24 24.7397 33.6187 25.081 34.12L24.489 34.552C24.1903 34.136 23.817 33.8267 23.369 33.624C22.9317 33.4107 22.4463 33.304 21.913 33.304C21.2623 33.304 20.6757 33.4533 20.153 33.752C19.641 34.04 19.2357 34.4507 18.937 34.984C18.649 35.5173 18.505 36.1307 18.505 36.824C18.505 37.5173 18.649 38.1307 18.937 38.664C19.2357 39.1973 19.641 39.6133 20.153 39.912C20.6757 40.2 21.2623 40.344 21.913 40.344C22.4463 40.344 22.9317 40.2427 23.369 40.04C23.817 39.8267 24.1903 39.512 24.489 39.096L25.081 39.528C24.7397 40.0293 24.2917 40.4133 23.737 40.68C23.193 40.936 22.585 41.064 21.913 41.064ZM32.0554 32.584C33.1007 32.584 33.9274 32.888 34.5354 33.496C35.1434 34.104 35.4474 34.9787 35.4474 36.12V41H34.6474V36.184C34.6474 35.2453 34.4074 34.5307 33.9274 34.04C33.458 33.5493 32.7967 33.304 31.9434 33.304C30.962 33.304 30.1887 33.5973 29.6234 34.184C29.058 34.7707 28.7754 35.56 28.7754 36.552V41H27.9754V29.128H28.7754V34.392C29.0634 33.816 29.49 33.3733 30.0554 33.064C30.6207 32.744 31.2874 32.584 32.0554 32.584ZM43.461 32.584C44.5063 32.584 45.333 32.888 45.941 33.496C46.549 34.104 46.853 34.9787 46.853 36.12V41H46.053V36.184C46.053 35.2453 45.813 34.5307 45.333 34.04C44.8637 33.5493 44.2023 33.304 43.349 33.304C42.3677 33.304 41.5943 33.5973 41.029 34.184C40.4637 34.7707 40.181 35.56 40.181 36.552V41H39.381V32.648H40.149V34.456C40.437 33.8693 40.8637 33.4107 41.429 33.08C42.005 32.7493 42.6823 32.584 43.461 32.584ZM50.7866 32.648H51.5866V41H50.7866V32.648ZM51.1866 30.616C51.0053 30.616 50.8506 30.5573 50.7226 30.44C50.5946 30.312 50.5306 30.1573 50.5306 29.976C50.5306 29.7947 50.5946 29.64 50.7226 29.512C50.8506 29.384 51.0053 29.32 51.1866 29.32C51.368 29.32 51.5226 29.384 51.6506 29.512C51.7786 29.6293 51.8426 29.7787 51.8426 29.96C51.8426 30.1413 51.7786 30.296 51.6506 30.424C51.5226 30.552 51.368 30.616 51.1866 30.616ZM58.9105 41.064C58.0998 41.064 57.3745 40.8827 56.7345 40.52C56.0945 40.1573 55.5932 39.656 55.2305 39.016C54.8678 38.3653 54.6865 37.6347 54.6865 36.824C54.6865 36.0027 54.8678 35.272 55.2305 34.632C55.5932 33.9813 56.0945 33.48 56.7345 33.128C57.3745 32.7653 58.0998 32.584 58.9105 32.584C59.5825 32.584 60.1905 32.7173 60.7345 32.984C61.2892 33.24 61.7372 33.6187 62.0785 34.12L61.4865 34.552C61.1878 34.136 60.8145 33.8267 60.3665 33.624C59.9292 33.4107 59.4438 33.304 58.9105 33.304C58.2598 33.304 57.6732 33.4533 57.1505 33.752C56.6385 34.04 56.2332 34.4507 55.9345 34.984C55.6465 35.5173 55.5025 36.1307 55.5025 36.824C55.5025 37.5173 55.6465 38.1307 55.9345 38.664C56.2332 39.1973 56.6385 39.6133 57.1505 39.912C57.6732 40.2 58.2598 40.344 58.9105 40.344C59.4438 40.344 59.9292 40.2427 60.3665 40.04C60.8145 39.8267 61.1878 39.512 61.4865 39.096L62.0785 39.528C61.7372 40.0293 61.2892 40.4133 60.7345 40.68C60.1905 40.936 59.5825 41.064 58.9105 41.064ZM67.9295 32.584C68.9642 32.584 69.7588 32.8507 70.3135 33.384C70.8682 33.9067 71.1455 34.68 71.1455 35.704V41H70.3775V39.512C70.1108 40.0027 69.7215 40.3867 69.2095 40.664C68.6975 40.9307 68.0842 41.064 67.3695 41.064C66.4415 41.064 65.7055 40.8453 65.1615 40.408C64.6282 39.9707 64.3615 39.3947 64.3615 38.68C64.3615 37.9867 64.6068 37.4267 65.0975 37C65.5988 36.5627 66.3935 36.344 67.4815 36.344H70.3455V35.672C70.3455 34.8933 70.1322 34.3013 69.7055 33.896C69.2895 33.4907 68.6762 33.288 67.8655 33.288C67.3108 33.288 66.7775 33.384 66.2655 33.576C65.7642 33.768 65.3375 34.024 64.9855 34.344L64.5855 33.768C65.0015 33.3947 65.5028 33.1067 66.0895 32.904C66.6762 32.6907 67.2895 32.584 67.9295 32.584ZM67.4815 40.408C68.1748 40.408 68.7615 40.248 69.2415 39.928C69.7322 39.608 70.1002 39.144 70.3455 38.536V36.968H67.4975C66.6762 36.968 66.0788 37.1173 65.7055 37.416C65.3428 37.7147 65.1615 38.1253 65.1615 38.648C65.1615 39.192 65.3642 39.624 65.7695 39.944C66.1748 40.2533 66.7455 40.408 67.4815 40.408ZM75.0816 29.128H75.8816V41H75.0816V29.128ZM91.6989 37.016H84.5149C84.5362 37.6667 84.7015 38.248 85.0109 38.76C85.3202 39.2613 85.7362 39.6507 86.2589 39.928C86.7922 40.2053 87.3895 40.344 88.0509 40.344C88.5949 40.344 89.0962 40.248 89.5549 40.056C90.0242 39.8533 90.4135 39.56 90.7229 39.176L91.1869 39.704C90.8242 40.1413 90.3655 40.4773 89.8109 40.712C89.2669 40.9467 88.6749 41.064 88.0349 41.064C87.2029 41.064 86.4615 40.8827 85.8109 40.52C85.1602 40.1573 84.6482 39.656 84.2749 39.016C83.9122 38.376 83.7309 37.6453 83.7309 36.824C83.7309 36.0133 83.9015 35.288 84.2429 34.648C84.5949 33.9973 85.0749 33.4907 85.6829 33.128C86.2909 32.7653 86.9735 32.584 87.7309 32.584C88.4882 32.584 89.1655 32.7653 89.7629 33.128C90.3709 33.48 90.8455 33.976 91.1869 34.616C91.5389 35.256 91.7149 35.9813 91.7149 36.792L91.6989 37.016ZM87.7309 33.288C87.1442 33.288 86.6162 33.4213 86.1469 33.688C85.6775 33.944 85.2989 34.312 85.0109 34.792C84.7335 35.2613 84.5735 35.7947 84.5309 36.392H90.9309C90.8989 35.7947 90.7389 35.2613 90.4509 34.792C90.1629 34.3227 89.7842 33.9547 89.3149 33.688C88.8455 33.4213 88.3175 33.288 87.7309 33.288ZM101.378 32.648L97.6015 41H96.7855L93.0255 32.648H93.8735L97.2015 40.12L100.562 32.648H101.378ZM110.588 37.016H103.404C103.426 37.6667 103.591 38.248 103.9 38.76C104.21 39.2613 104.626 39.6507 105.148 39.928C105.682 40.2053 106.279 40.344 106.94 40.344C107.484 40.344 107.986 40.248 108.444 40.056C108.914 39.8533 109.303 39.56 109.612 39.176L110.076 39.704C109.714 40.1413 109.255 40.4773 108.7 40.712C108.156 40.9467 107.564 41.064 106.924 41.064C106.092 41.064 105.351 40.8827 104.7 40.52C104.05 40.1573 103.538 39.656 103.164 39.016C102.802 38.376 102.62 37.6453 102.62 36.824C102.62 36.0133 102.791 35.288 103.132 34.648C103.484 33.9973 103.964 33.4907 104.572 33.128C105.18 32.7653 105.863 32.584 106.62 32.584C107.378 32.584 108.055 32.7653 108.652 33.128C109.26 33.48 109.735 33.976 110.076 34.616C110.428 35.256 110.604 35.9813 110.604 36.792L110.588 37.016ZM106.62 33.288C106.034 33.288 105.506 33.4213 105.036 33.688C104.567 33.944 104.188 34.312 103.9 34.792C103.623 35.2613 103.463 35.7947 103.42 36.392H109.82C109.788 35.7947 109.628 35.2613 109.34 34.792C109.052 34.3227 108.674 33.9547 108.204 33.688C107.735 33.4213 107.207 33.288 106.62 33.288ZM117.799 32.584C118.844 32.584 119.671 32.888 120.279 33.496C120.887 34.104 121.191 34.9787 121.191 36.12V41H120.391V36.184C120.391 35.2453 120.151 34.5307 119.671 34.04C119.202 33.5493 118.54 33.304 117.687 33.304C116.706 33.304 115.932 33.5973 115.367 34.184C114.802 34.7707 114.519 35.56 114.519 36.552V41H113.719V32.648H114.487V34.456C114.775 33.8693 115.202 33.4107 115.767 33.08C116.343 32.7493 117.02 32.584 117.799 32.584ZM129.269 40.472C129.066 40.664 128.81 40.8133 128.501 40.92C128.202 41.016 127.887 41.064 127.557 41.064C126.831 41.064 126.271 40.8667 125.877 40.472C125.482 40.0667 125.285 39.5067 125.285 38.792V33.336H123.749V32.648H125.285V30.824H126.085V32.648H128.741V33.336H126.085V38.712C126.085 39.256 126.213 39.672 126.469 39.96C126.735 40.2373 127.125 40.376 127.637 40.376C128.159 40.376 128.591 40.2213 128.933 39.912L129.269 40.472ZM132.044 33.944C131.862 33.944 131.702 33.88 131.564 33.752C131.436 33.6133 131.372 33.448 131.372 33.256C131.372 33.064 131.436 32.904 131.564 32.776C131.702 32.648 131.862 32.584 132.044 32.584C132.225 32.584 132.38 32.648 132.508 32.776C132.646 32.904 132.716 33.064 132.716 33.256C132.716 33.448 132.646 33.6133 132.508 33.752C132.38 33.88 132.225 33.944 132.044 33.944ZM132.044 41.064C131.862 41.064 131.702 41 131.564 40.872C131.436 40.7333 131.372 40.568 131.372 40.376C131.372 40.184 131.436 40.024 131.564 39.896C131.702 39.768 131.862 39.704 132.044 39.704C132.225 39.704 132.38 39.768 132.508 39.896C132.646 40.024 132.716 40.184 132.716 40.376C132.716 40.568 132.646 40.7333 132.508 40.872C132.38 41 132.225 41.064 132.044 41.064ZM140.137 26.15H151.423V28.746H147.089V41H144.471V28.746H140.137V26.15ZM159.173 26.15H166.609V28.746H159.173C157.611 28.746 156.929 29.472 156.929 30.616C156.929 31.826 157.699 32.376 159.195 32.376H166.499V34.73H159.129C157.633 34.73 156.863 35.324 156.863 36.534C156.863 37.7 157.589 38.404 159.107 38.404H166.631V41H159.107C155.587 41 154.157 39.262 154.157 36.952C154.157 35.258 154.927 34.114 156.291 33.542C154.905 32.97 154.201 31.826 154.201 30.198C154.201 27.822 155.675 26.15 159.173 26.15ZM177.045 26.15H182.787V28.746H177.045C174.185 28.746 172.931 30.176 172.931 33.586C172.931 36.974 174.163 38.404 177.045 38.404H182.787V41H177.045C172.711 41 170.335 38.558 170.335 33.586C170.335 28.592 172.733 26.15 177.045 26.15ZM186.761 26.15H189.357V32.2H196.947V26.15H199.565V41H196.947V34.796H189.357V41H186.761V26.15ZM204.034 26.15H206.63V32.442H208.06C210.612 32.442 211.03 32.222 211.866 30.594L214.132 26.15H216.926L214.594 30.77C213.934 32.09 213.23 32.948 212.02 33.476C213.406 33.85 214.088 34.62 214.968 36.336L217.366 41H214.462L212.196 36.6C211.382 35.016 210.854 34.796 208.06 34.796H206.63V41H204.034V26.15ZM220.446 26.15H228.498C231.842 26.15 233.272 28.218 233.272 30.594C233.272 32.442 232.392 34.422 230.126 35.06L233.58 41H230.698L227.31 35.258H223.438C223.196 35.258 223.064 35.368 223.064 35.632V41H220.468V35.126C220.468 33.454 221.172 32.772 222.8 32.772H228.586C230.06 32.772 230.654 31.76 230.654 30.704C230.654 29.648 230.016 28.746 228.586 28.746H220.446V26.15ZM237.075 26.15H239.671V41H237.075V26.15ZM242.625 26.15H245.771L249.929 32.508L254.131 26.15H257.211L251.227 34.598V41H248.609V34.598L242.625 26.15ZM264.224 29.054L259.516 41H256.656L261.87 27.8C262.42 26.414 263.432 25.886 264.994 25.886C266.534 25.886 267.546 26.414 268.074 27.8L273.09 41H270.208L265.698 29.054C265.566 28.702 265.324 28.548 264.972 28.548C264.62 28.548 264.378 28.702 264.224 29.054ZM273.96 24.346H276.468V27.91C276.468 30 275.544 31.034 273.608 31.034H272.838V29.12H273.102C273.696 29.12 273.96 28.834 273.96 28.174V24.346ZM280.538 26.15H289.052C291.912 26.15 293.518 27.624 293.518 30.352C293.518 32.552 292.462 33.784 290.064 34.334L283.882 35.72C282.848 35.962 282.65 36.512 282.65 37.348V38.096C282.65 38.338 282.738 38.404 282.936 38.404H293.122V41H281.286C280.45 41 280.054 40.604 280.054 39.79V37.546C280.054 35.126 280.78 33.85 283.31 33.278L289.558 31.848C290.614 31.606 290.944 31.1 290.944 30.396C290.944 29.406 290.306 28.746 289.118 28.746H280.538V26.15ZM297.267 32.948L301.557 27.822C302.481 26.722 303.229 26.15 305.011 26.15H306.661C308.575 26.15 309.345 27.096 309.345 28.856V41H306.727V37.92H299.775C297.267 37.92 296.343 37.018 296.343 35.346C296.343 34.246 296.717 33.608 297.267 32.948ZM303.559 29.384L299.511 34.202C299.335 34.4 299.247 34.598 299.247 34.884C299.247 35.346 299.533 35.61 300.237 35.61H306.727V29.472C306.727 29.01 306.529 28.746 306.067 28.746H304.901C304.241 28.746 303.977 28.9 303.559 29.384Z" fill="#ABABAB"/>
</svg>
