<svg width="212" height="21" viewBox="0 0 212 21" fill="none" xmlns="http://www.w3.org/2000/svg">
<path d="M18.904 4.04L20.944 0.639999H26.792L21.828 8.936L18.904 4.04ZM35.19 0.639999L24.174 19H19.414L17.612 15.974L15.776 19H11.016L0 0.639999H5.848L13.396 13.186L14.654 11.112L8.398 0.639999H14.246L21.794 13.186L29.342 0.639999H35.19ZM41.0614 5.264V7.508H52.8254V12.132H41.0614V14.376H57.3814V19H36.0294V0.639999H57.3814V5.264H41.0614ZM81.3763 14.376V19H59.2423V0.639999H64.2743V14.376H81.3763ZM87.2549 12.846C87.2549 13.2767 87.4022 13.6393 87.6969 13.934C87.9916 14.2287 88.3542 14.376 88.7849 14.376H104.221V19H88.0709C87.2549 19 86.4956 18.8527 85.7929 18.558C85.0902 18.2407 84.4669 17.8213 83.9229 17.3C83.4016 16.756 82.9822 16.1327 82.6649 15.43C82.3702 14.7273 82.2229 13.968 82.2229 13.152V6.488C82.2229 5.672 82.3702 4.91267 82.6649 4.21C82.9822 3.50733 83.4016 2.89533 83.9229 2.374C84.4669 1.83 85.0902 1.41067 85.7929 1.116C86.4956 0.798666 87.2549 0.639999 88.0709 0.639999H104.221V5.298H88.7849C88.3542 5.298 87.9916 5.44533 87.6969 5.74C87.4022 6.03467 87.2549 6.386 87.2549 6.794V12.846ZM123.95 0.639999C124.97 0.639999 125.922 0.832666 126.806 1.218C127.69 1.60333 128.461 2.136 129.118 2.816C129.798 3.47333 130.331 4.244 130.716 5.128C131.101 6.012 131.294 6.964 131.294 7.984L131.26 11.69C131.26 12.71 131.067 13.662 130.682 14.546C130.297 15.43 129.775 16.2007 129.118 16.858C128.461 17.5153 127.69 18.0367 126.806 18.422C125.922 18.8073 124.97 19 123.95 19H113.444C112.424 19 111.472 18.8073 110.588 18.422C109.704 18.0367 108.922 17.5153 108.242 16.858C107.585 16.2007 107.063 15.43 106.678 14.546C106.293 13.662 106.1 12.71 106.1 11.69L106.134 7.95C106.134 6.93 106.327 5.978 106.712 5.094C107.097 4.21 107.619 3.43933 108.276 2.782C108.933 2.12467 109.704 1.60333 110.588 1.218C111.472 0.832666 112.424 0.639999 113.444 0.639999H123.95ZM126.228 7.576C126.228 6.94133 126.001 6.40867 125.548 5.978C125.117 5.52467 124.585 5.298 123.95 5.298H113.444C112.809 5.298 112.265 5.52467 111.812 5.978C111.359 6.40867 111.132 6.94133 111.132 7.576V12.098C111.132 12.7327 111.359 13.2767 111.812 13.73C112.265 14.1607 112.809 14.376 113.444 14.376H123.95C124.585 14.376 125.117 14.1607 125.548 13.73C126.001 13.2767 126.228 12.7327 126.228 12.098V7.576ZM161.384 0.639999V19H156.386V9.072L150.164 19H144.418L138.196 9.072V19H133.164V0.639999H138.094L147.274 14.478L156.454 0.639999H161.384ZM168.282 5.264V7.508H180.046V12.132H168.282V14.376H184.602V19H163.25V0.639999H184.602V5.264H168.282ZM191.329 20.4H211.329V0.4H191.329V20.4Z" fill="white"/>
</svg>
